o Pillow1/Pillow/mesh20/mesh20-geometry#mesh20-geometry
v 49.01662643188477 56.142229 26.287809466918944
v 34.48699043188476 54.625871 19.184091466918947
v 43.98894743188477 55.45 20.014090466918944
v 39.141891431884765 55.735974 25.247510466918946
v 31.485189431884763 57.520749 15.682154466918947
v 47.98894743188477 55.45 20.014090466918944
v 40.98894743188477 57.75 30.404829466918947
v 29.122470431884768 55.95 25.795568466918947
v 31.247470431884764 57.75 15.404829466918947
v 26.638208431884763 57.75 15.404829466918947
v 50.745857431884765 57.012168 19.147450466918944
v 48.11394743188477 57.75 30.404829466918944
v 27.694878431884767 57.513347 19.951217466918948
v 47.98894743188477 57.75 15.404829466918944
v 51.32519343188476 57.340442 18.96533546691894
v 52.598208431884764 57.75 15.404829466918942
v 52.59820843188477 57.75 30.40482946691894
v 48.108224431884764 59.685287 25.22035446691894
v 30.997470431884768 57.75 30.404829466918947
v 27.138208431884763 57.75 20.014090466918947
v 31.247470431884764 60.05 20.014090466918947
v 50.89566143188477 57.117503 25.033530466918943
v 26.37247043188477 57.75 30.404829466918947
v 27.138208431884767 57.75 25.795568466918947
v 48.16534143188477 60.00981 18.55638046691894
v 46.83950843188477 57.969323 15.844357466918943
v 51.32519343188477 57.340442 24.746813466918944
v 50.76330743188477 57.75 24.829523466918943
v 32.23198943188477 60.103092000000004 22.133294466918947
v 27.694878431884767 58.007156 20.245685466918946
v 35.934970431884764 60.05 20.014090466918944
v 51.18960443188477 57.439273 19.228972466918943
vn 0.19525100585303953 -0.9717270291294616 0.1327540039795668
vn -0.08935498505761391 -0.9826478356767293 -0.1625389728194225
vn 0.05482298758536321 -0.9629707819357725 -0.2639729402234664
vn -0.05482298758536321 0.9629707819357725 0.2639729402234664
vn 0.08935498505761391 0.9826478356767293 0.1625389728194225
vn -0.19525100585303953 0.9717270291294616 -0.1327540039795668
vn 0.003204999159449078 -0.9626117475430697 0.2708659289620336
vn -0.003204999159449078 0.9626117475430697 -0.2708659289620336
vn 0.061244006543738565 -0.7428890793754737 -0.6666070712249694
vn -0.061244006543738565 0.7428890793754737 0.6666070712249694
vn 0.1796010016772039 -0.9628610089916774 -0.20159900188263227
vn -0.1796010016772039 0.9628610089916774 0.20159900188263227
vn 1.206285748914133e-16 -0.8395626985391155 0.5432628049312029
vn -1.206285748914133e-16 0.8395626985391155 -0.5432628049312029
vn -0.31544211108295894 -0.9414563315339054 0.11898004189882919
vn 0.31544211108295894 0.9414563315339054 -0.11898004189882919
vn 0.04122200441955549 -0.8438330904703039 -0.535020057361376
vn -0.04122200441955549 0.8438330904703039 0.535020057361376
vn -0.21085196310839505 -0.9221278386603778 -0.3243789432452053
vn 0.21085196310839505 0.9221278386603778 0.3243789432452053
vn 0.5041128316954058 -0.8622207121364543 0.04945398348914735
vn -0.5041128316954058 0.8622207121364543 -0.04945398348914735
vn 1.6617835120922139e-16 0.6632467878240702 0.7484007605828928
vn -1.6617835120922139e-16 -0.6632467878240702 -0.7484007605828928
vn -0.3956209443703582 -0.9169808710601193 -0.05128499278863807
vn 0.3956209443703582 0.9169808710601193 0.05128499278863807
vn -1.414735095484606e-16 -0.7707480542976608 -0.6371400448852435
vn 1.414735095484606e-16 0.7707480542976608 0.6371400448852435
vn -9.914163945820017e-17 -0.8947865020505306 -0.44649425052085034
vn 9.914163945820017e-17 0.8947865020505306 0.44649425052085034
vn 0.4786382323329689 -0.8779824261762851 0.007232003510444176
vn -0.4786382323329689 0.8779824261762851 -0.007232003510444176
vn 0.2749999994460125 -0.9415019981033442 -0.19480499960756542
vn -0.2749999994460125 0.9415019981033442 0.19480499960756542
vn 0.23158205022760475 -0.9574132076524156 0.17242303739666415
vn -0.23158205022760475 0.9574132076524156 -0.17242303739666415
vn 0.27297495385481635 0.9526048389664522 0.13427097730209736
vn -0.27297495385481635 -0.9526048389664522 -0.13427097730209736
vn -0.011778002507460325 0.8378801783792628 0.5457271161817682
vn 0.011778002507460325 -0.8378801783792628 -0.5457271161817682
vn -0.4940652451181805 -0.8687374310024649 -0.0345660171490694
vn 0.4940652451181805 0.8687374310024649 0.0345660171490694
vn -9.914163945820017e-17 0.8947865020505306 -0.44649425052085034
vn -0.26024909654813866 0.9424243496239486 -0.21001607791251403
vn -0.17231806470906422 0.9649153623460499 -0.19810307439187858
vn 0.17231806470906422 -0.9649153623460499 0.19810307439187858
vn 0.26024909654813866 -0.9424243496239486 0.21001607791251403
vn 9.914163945820017e-17 -0.8947865020505306 0.44649425052085034
vn -0.01664300226496309 0.8567351165939467 -0.5154880701532917
vn 0.01664300226496309 -0.8567351165939467 0.5154880701532917
vn 0.5111821296651975 -0.8553202169584154 0.08438102140388154
vn -0.5111821296651975 0.8553202169584154 -0.08438102140388154
vn 0.45148379394284344 -0.8921115928403619 -0.017299992104285504
vn -0.45148379394284344 0.8921115928403619 0.017299992104285504
vn 0.3050200480623178 0.9481071493942035 0.08975301414247325
vn -0.3050200480623178 -0.9481071493942035 -0.08975301414247325
vn -0.3680992173470078 -0.9192805427962515 0.13937808229685844
vn 0.3680992173470078 0.9192805427962515 -0.13937808229685844
vn -0.6708429468336861 -0.7395159413911454 -0.05555099559741698
vn 0.6708429468336861 0.7395159413911454 0.05555099559741698
vn -0.4638578158619355 0.8818266499404623 0.08495696627455493
vn 0.4638578158619355 -0.8818266499404623 -0.08495696627455493
vn 0.35025999658426454 0.9214519910140003 -0.168059998361079
vn 0.2223289690659275 0.963463865947019 -0.14935597921913327
vn -0.2223289690659275 -0.963463865947019 0.14935597921913327
vn -0.35025999658426454 -0.9214519910140003 0.168059998361079
vn -0.033288016078698295 0.8567904138448637 -0.5145892485556723
vn 0.033288016078698295 -0.8567904138448637 0.5145892485556723
vn 0.6136132031262531 0.7812312586133701 0.11470203797016588
vn -0.6136132031262531 -0.7812312586133701 -0.11470203797016588
vn 0.46067416951960305 -0.8875693266091523 -1.0229021397014716e-16
vn -0.46067416951960305 0.8875693266091523 1.0229021397014716e-16
vn 0.4421110102085644 -0.8962930206958543 -0.03459300079876979
vn -0.4421110102085644 0.8962930206958543 0.03459300079876979
vn 0.5775438479344575 0.8110767864459435 -0.09272297558632203
vn -0.5775438479344575 -0.8110767864459435 0.09272297558632203
vn -0.17758602584747032 0.9803091426830257 0.08635501256888668
vn 0.17758602584747032 -0.9803091426830257 -0.08635501256888668
vn -0.24223505949899377 0.9647502369668061 0.10285502526376875
vn 0.24223505949899377 -0.9647502369668061 -0.10285502526376875
vn -0.44174680381277825 0.8963126019324246 -0.038515982894400926
vn -0.45155379264519135 0.8865065929136065 0.10102095361088578
vn 0.45155379264519135 -0.8865065929136065 -0.10102095361088578
vn 0.44174680381277825 -0.8963126019324246 0.038515982894400926
vn -0.01708699656471101 0.9602938069358304 -0.27846694401506195
vn 0.01708699656471101 -0.9602938069358304 0.27846694401506195
vn 0.6157552812780004 0.7876463597981208 0.021416009782867493
vn -0.6157552812780004 -0.7876463597981208 -0.021416009782867493
f 1//1 2//2 3//3
f 3//4 2//5 1//6
f 1//1 4//7 2//2
f 2//5 4//8 1//6
f 5//9 3//3 2//2
f 2//5 3//4 5//10
f 1//1 3//3 6//11
f 6//12 3//4 1//6
f 1//1 7//13 4//7
f 4//8 7//14 1//6
f 4//7 8//15 2//2
f 2//5 8//16 4//8
f 3//3 5//9 9//17
f 9//18 5//10 3//4
f 10//19 5//9 2//2
f 2//5 5//10 10//20
f 6//11 3//3 9//17
f 9//18 3//4 6//12
f 11//21 1//1 6//11
f 6//12 1//6 11//22
f 1//1 12//23 7//13
f 7//14 12//24 1//6
f 7//13 8//15 4//7
f 4//8 8//16 7//14
f 8//15 13//25 2//2
f 2//5 13//26 8//16
f 5//9 10//19 9//27
f 9//28 10//20 5//10
f 13//25 10//19 2//2
f 2//5 10//20 13//26
f 14//29 6//11 9//17
f 9//18 6//12 14//30
f 1//1 11//21 15//31
f 15//32 11//22 1//6
f 16//33 11//21 6//11
f 6//12 11//22 16//34
f 12//23 1//1 17//35
f 17//36 1//6 12//24
f 18//37 7//13 12//23
f 12//24 7//14 18//38
f 19//39 8//15 7//13
f 7//14 8//16 19//40
f 13//25 8//15 20//41
f 20//42 8//16 13//26
f 9//43 10//44 21//45
f 21//46 10//47 9//48
f 10//19 13//25 20//41
f 20//42 13//26 10//20
f 16//33 6//11 14//29
f 14//30 6//12 16//34
f 14//49 9//43 21//45
f 21//46 9//48 14//50
f 11//21 16//33 15//51
f 15//52 16//34 11//22
f 15//31 22//53 1//1
f 1//6 22//54 15//32
f 22//53 17//35 1//1
f 1//6 17//36 22//54
f 17//55 18//37 12//23
f 12//24 18//38 17//56
f 7//13 18//37 19//39
f 19//40 18//38 7//14
f 8//15 19//39 23//57
f 23//58 19//40 8//16
f 8//15 24//59 20//41
f 20//42 24//60 8//16
f 21//45 10//44 20//61
f 20//62 10//47 21//46
f 16//63 14//49 25//64
f 25//65 14//50 16//66
f 21//45 26//67 14//49
f 14//50 26//68 21//46
f 16//63 25//64 15//69
f 15//70 25//65 16//66
f 22//53 15//31 27//71
f 27//72 15//32 22//54
f 17//35 22//53 27//73
f 27//74 22//54 17//36
f 17//55 28//75 18//37
f 18//38 28//76 17//56
f 18//37 29//77 19//39
f 19//40 29//78 18//38
f 29//77 23//79 19//39
f 19//40 23//80 29//78
f 8//15 23//57 24//59
f 24//60 23//58 8//16
f 24//81 30//82 20//61
f 20//62 30//83 24//84
f 30//82 21//45 20//61
f 20//62 21//46 30//83
f 26//67 25//64 14//49
f 14//50 25//65 26//68
f 26//67 21//45 31//85
f 31//86 21//46 26//68
f 25//64 32//87 15//69
f 15//70 32//88 25//65
f 32//87 27//75 15//69
f 15//70 27//76 32//88
f 28//75 17//55 27//75
f 27//76 17//56 28//76
f 28//75 32//87 18//37
f 18//38 32//88 28//76
f 25//64 29//77 18//37
f 18//38 29//78 25//65
f 29//77 24//81 23//79
f 23//80 24//84 29//78
f 30//82 24//81 29//77
f 29//78 24//84 30//83
f 21//45 30//82 29//77
f 29//78 30//83 21//46
f 25//64 26//67 31//85
f 31//86 26//68 25//65
f 31//85 21//45 29//77
f 29//78 21//46 31//86
f 32//87 25//64 18//37
f 18//38 25//65 32//88
f 32//87 28//75 27//75
f 27//76 28//76 32//88
f 25//64 31//85 29//77
f 29//78 31//86 25//65
