o mesh10/mesh10-geometry#mesh10-geometry
v 70.879207 1.7575810000000163 -73.410811
v 70.879207 2.0000000000000164 -73.09701
v 70.879207 1.8200000000000163 -73.09701
v 70.879207 1.9238800000000162 -73.479694
v 70.879207 1.7575810000000163 -72.78321
v 70.526381 1.8200000000000163 -73.09701
v 70.879207 1.5798280000000164 -73.676838
v 70.229207 1.9238800000000162 -73.479694
v 70.879207 1.9238800000000162 -72.714327
v 70.526381 1.7575810000000163 -72.78321
v 70.526381 1.7575810000000163 -73.410811
v 70.879207 1.7071070000000164 -73.804117
v 70.229207 2.0000000000000164 -73.09701
v 70.229207 1.7071070000000164 -73.804117
v 70.879207 1.5798280000000162 -72.517183
v 70.526381 1.5798280000000162 -72.517183
v 70.701207 1.0000000000000162 -73.09701
v 70.879207 1.3138000000000165 -73.854592
v 70.526381 1.5798280000000164 -73.676838
v 70.479207 1.3000000000000163 -73.09701
v 70.479207 1.2121320000000162 -73.309142
v 70.229207 1.9238800000000162 -72.714327
v 70.879207 1.707107000000016 -72.389904
v 70.879207 1.3826830000000165 -74.02089
v 70.229207 1.3826830000000165 -74.02089
v 70.479207 1.2771640000000162 -73.211815
v 70.479207 1.2771640000000162 -72.982205
v 70.479207 1.1148050000000163 -73.374174
v 70.879207 1.313800000000016 -72.339429
v 70.526381 1.313800000000016 -72.339429
v 70.526381 1.3138000000000165 -73.854592
v 70.879207 1.0000000000000164 -73.91701
v 70.049207 1.2771640000000162 -73.211815
v 70.049207 1.3000000000000163 -73.09701
v 70.049207 1.2121320000000162 -73.309142
v 70.479207 1.2121320000000162 -72.884878
v 70.229207 1.707107000000016 -72.389904
v 70.879207 1.382683000000016 -72.173131
v 70.526381 1.000000000000016 -72.27701
v 70.526381 1.0000000000000164 -73.91701
v 70.879207 1.0000000000000164 -74.09701
v 70.229207 1.0000000000000164 -74.09701
v 70.479207 1.0000000000000162 -73.39701
v 70.049207 1.2771640000000162 -72.982205
v 70.049207 1.1148050000000163 -73.374174
v 70.229207 1.382683000000016 -72.173131
v 70.879207 1.000000000000016 -72.27701
v 70.526381 0.6862000000000161 -72.339429
v 70.526381 0.6862000000000165 -73.854592
v 70.879207 0.6173170000000164 -74.02089
v 70.479207 1.1148050000000163 -72.819847
v 70.049207 1.2121320000000162 -72.884878
v 70.229207 1.000000000000016 -72.09701
v 70.879207 1.000000000000016 -72.09701
v 70.879207 0.6862000000000161 -72.339429
v 70.526381 0.4201720000000161 -72.517183
v 70.879207 0.6862000000000165 -73.854592
v 70.526381 0.42017200000001637 -73.676838
v 70.229207 0.6173170000000164 -74.02089
v 70.049207 1.0000000000000162 -73.39701
v 70.049207 1.1148050000000163 -72.819847
v 70.479207 1.0000000000000162 -72.79701
v 70.879207 0.617317000000016 -72.173131
v 70.879207 0.4201720000000161 -72.517183
v 70.526381 0.24241900000001615 -72.78321
v 70.526381 0.2424190000000163 -73.410811
v 70.879207 0.42017200000001637 -73.676838
v 70.879207 0.2928930000000164 -73.804117
v 70.479207 0.8851950000000163 -73.374174
v 70.049207 1.0000000000000162 -72.79701
v 70.229207 0.617317000000016 -72.173131
v 70.879207 0.2928930000000161 -72.389904
v 70.526381 0.18000000000001623 -73.09701
v 70.879207 0.2424190000000163 -73.410811
v 70.229207 0.2928930000000164 -73.804117
v 70.049207 0.8851950000000163 -73.374174
v 70.479207 0.8851950000000162 -72.819847
v 70.879207 0.07612000000001613 -72.714327
v 70.879207 0.24241900000001615 -72.78321
v 70.879207 0.18000000000001623 -73.09701
v 70.879207 0.07612000000001631 -73.479694
v 70.479207 0.7878680000000163 -73.309142
v 70.049207 0.8851950000000162 -72.819847
v 70.229207 0.2928930000000161 -72.389904
v 70.229207 0.07612000000001631 -73.479694
v 70.049207 0.7878680000000163 -73.309142
v 70.049207 0.7878680000000162 -72.884878
v 70.479207 0.7878680000000162 -72.884878
v 70.879207 1.6230796706651062e-14 -73.09701
v 70.229207 0.07612000000001613 -72.714327
v 70.229207 1.6230796706651062e-14 -73.09701
v 70.479207 0.7228360000000162 -73.211815
v 70.049207 0.7228360000000162 -73.211815
v 70.479207 0.7228360000000162 -72.982205
v 70.479207 0.7000000000000162 -73.09701
v 70.049207 0.7000000000000162 -73.09701
v 70.049207 0.7228360000000162 -72.982205
vn 1 0 0
vn 0 -0.9807853313461206 0.1950900659087511
vn 0 0.9807853313461206 -0.1950900659087511
vn 0 -0.9807853313461203 -0.1950900659087515
vn 0 -0.8314698396094836 0.5555698928305778
vn 0 0.8314698396094836 -0.5555698928305778
vn 0 0.9807853313461203 0.1950900659087515
vn 0 -0.8314698396094832 -0.5555698928305781
vn 0.9780188646847422 0.19264397334645597 -0.07979598895970698
vn 0.9780189576434669 0.20851599096948542 4.6299850835370786e-17
vn 0.9780188646847424 0.19264397334645594 0.07979598895970708
vn -0.9417420577193724 -0.3107340190448886 0.12871000788863654
vn -0.9417420473413738 -0.336336016907612 -7.468159799630936e-17
vn -0.9417418083009403 -0.2378259515886299 0.2378259515886298
vn 0.9780189800195613 0.14744299698781327 0.14744299698781332
vn 0.9780189800195613 0.14744299698781332 -0.14744299698781327
vn 0 -0.5555698928305781 0.8314698396094832
vn 0 0.5555698928305781 -0.8314698396094832
vn -0.9417420577193724 -0.3107340190448885 -0.12871000788863665
vn -0.9417420577193724 -0.12871000788863665 0.3107340190448885
vn 0 0.8314698396094832 0.5555698928305781
vn 0 -0.5555698928305778 -0.8314698396094836
vn 0.9780188646847422 0.07979598895970698 0.19264397334645597
vn 0.9780188646847422 0.07979598895970706 -0.19264397334645592
vn -0.9417418083009403 -0.2378259515886298 -0.2378259515886299
vn 0.9780189576434669 -4.6299850835370786e-17 0.20851599096948542
vn 0.9780189576434669 4.6299850835370786e-17 -0.20851599096948542
vn 0 -0.1950900659087515 0.9807853313461203
vn 0 0.1950900659087515 -0.9807853313461203
vn -0.9417420473413738 -7.468159799630936e-17 0.336336016907612
vn 0 0.5555698928305778 0.8314698396094836
vn 0 -0.1950900659087511 -0.9807853313461206
vn 0.9780188646847422 -0.07979598895970706 0.19264397334645592
vn 0.9780188646847422 -0.07979598895970698 -0.19264397334645597
vn -0.9417420577193724 -0.12871000788863654 -0.3107340190448886
vn 0 0.1950900659087511 0.9807853313461206
vn 0.9780189800195613 -0.14744299698781332 0.14744299698781327
vn 0.9780189800195613 -0.14744299698781327 -0.14744299698781332
vn -0.9417420577193724 0.12871000788863654 0.3107340190448886
vn -0.9417420473413738 7.468159799630936e-17 -0.336336016907612
vn 0.9780188646847422 -0.19264397334645597 0.07979598895970698
vn 0.9780188646847424 -0.19264397334645594 -0.07979598895970708
vn -0.9417420577193724 0.12871000788863665 -0.3107340190448885
vn 0.9780189576434669 -0.20851599096948542 -4.6299850835370786e-17
vn -0.9417418083009403 0.2378259515886298 0.2378259515886299
vn -0.9417418083009403 0.2378259515886299 -0.2378259515886298
vn -0.9417420577193724 0.3107340190448885 0.12871000788863665
vn -0.9417420577193724 0.3107340190448886 -0.12871000788863654
vn -0.9417420473413738 0.336336016907612 7.468159799630936e-17
vn -1 0 0
vn -0.9780189576434669 -0.20851599096948542 -4.6299850835370786e-17
vn -0.9780188646847422 -0.19264397334645597 0.07979598895970698
vn -0.9780188646847424 -0.19264397334645594 -0.07979598895970708
vn 0.9417420473413738 0.336336016907612 7.468159799630936e-17
vn 0.9417420577193724 0.3107340190448886 -0.12871000788863654
vn 0.9417418083009403 0.2378259515886299 -0.2378259515886298
vn -0.9780189800195613 -0.14744299698781327 -0.14744299698781332
vn -0.9780189800195613 -0.14744299698781332 0.14744299698781327
vn 0.9417420577193724 0.3107340190448885 0.12871000788863665
vn 0.9417420577193724 0.12871000788863665 -0.3107340190448885
vn -0.9780188646847422 -0.07979598895970698 -0.19264397334645597
vn -0.9780188646847422 -0.07979598895970706 0.19264397334645592
vn 0.9417418083009403 0.2378259515886298 0.2378259515886299
vn -0.9780189576434669 4.6299850835370786e-17 -0.20851599096948542
vn -0.9780189576434669 -4.6299850835370786e-17 0.20851599096948542
vn 0.9417420473413738 7.468159799630936e-17 -0.336336016907612
vn -0.9780188646847422 0.07979598895970706 -0.19264397334645592
vn -0.9780188646847422 0.07979598895970698 0.19264397334645597
vn 0.9417420577193724 0.12871000788863654 0.3107340190448886
vn -0.9780189800195613 0.14744299698781332 -0.14744299698781327
vn -0.9780189800195613 0.14744299698781327 0.14744299698781332
vn 0.9417420577193724 -0.12871000788863654 -0.3107340190448886
vn 0.9417420473413738 -7.468159799630936e-17 0.336336016907612
vn -0.9780188646847422 0.19264397334645597 -0.07979598895970698
vn -0.9780188646847424 0.19264397334645594 0.07979598895970708
vn 0.9417420577193724 -0.12871000788863665 0.3107340190448885
vn -0.9780189576434669 0.20851599096948542 4.6299850835370786e-17
vn 0.9417418083009403 -0.2378259515886298 -0.2378259515886299
vn 0.9417418083009403 -0.2378259515886299 0.2378259515886298
vn 0.9417420577193724 -0.3107340190448885 -0.12871000788863665
vn 0.9417420577193724 -0.3107340190448886 0.12871000788863654
vn 0.9417420473413738 -0.336336016907612 -7.468159799630936e-17
f 1//1 2//1 3//1
f 2//1 1//1 4//1
f 2//1 5//1 3//1
f 6//2 1//2 3//2
f 7//1 4//1 1//1
f 8//3 2//3 4//3
f 5//1 2//1 9//1
f 10//4 3//4 5//4
f 1//2 6//2 11//2
f 3//4 10//4 6//4
f 4//1 7//1 12//1
f 11//5 7//5 1//5
f 2//3 8//3 13//3
f 4//6 14//6 8//6
f 13//7 9//7 2//7
f 9//1 15//1 5//1
f 5//8 16//8 10//8
f 11//9 6//10 17//1
f 6//10 10//11 17//1
f 18//1 12//1 7//1
f 14//6 4//6 12//6
f 7//5 11//5 19//5
f 8//12 20//13 13//13
f 21//14 8//12 14//14
f 9//7 13//7 22//7
f 15//1 9//1 23//1
f 16//8 5//8 15//8
f 17//1 10//11 16//15
f 19//16 11//9 17//1
f 12//1 18//1 24//1
f 19//17 18//17 7//17
f 12//18 25//18 14//18
f 20//13 8//12 26//12
f 27//19 13//13 20//13
f 8//12 21//14 26//12
f 14//14 28//20 21//14
f 13//13 27//19 22//19
f 22//21 23//21 9//21
f 23//1 29//1 15//1
f 29//22 16//22 15//22
f 17//1 16//15 30//23
f 31//24 19//16 17//1
f 32//1 24//1 18//1
f 25//18 12//18 24//18
f 18//17 19//17 31//17
f 28//20 14//14 25//20
f 33//3 20//3 26//3
f 34//7 27//7 20//7
f 35//6 26//6 21//6
f 28//18 35//18 21//18
f 36//25 22//19 27//19
f 23//21 22//21 37//21
f 29//1 23//1 38//1
f 16//22 29//22 30//22
f 17//1 30//23 39//26
f 40//27 31//24 17//1
f 24//1 32//1 41//1
f 31//28 32//28 18//28
f 24//29 42//29 25//29
f 25//20 43//30 28//20
f 20//3 33//3 34//3
f 26//6 35//6 33//6
f 27//7 34//7 44//7
f 35//18 28//18 45//18
f 22//19 36//25 37//25
f 44//21 36//21 27//21
f 46//31 23//31 37//31
f 23//31 46//31 38//31
f 38//1 47//1 29//1
f 47//32 30//32 29//32
f 30//32 47//32 39//32
f 17//1 39//26 48//33
f 32//28 31//28 40//28
f 40//27 17//1 49//34
f 32//1 50//1 41//1
f 42//29 24//29 41//29
f 43//30 25//20 42//30
f 43//29 45//29 28//29
f 51//35 37//25 36//25
f 36//21 44//21 52//21
f 37//25 51//35 46//35
f 53//36 38//36 46//36
f 47//1 38//1 54//1
f 55//29 39//29 47//29
f 39//29 55//29 48//29
f 17//1 48//33 56//37
f 40//36 57//36 32//36
f 49//34 17//1 58//38
f 57//36 40//36 49//36
f 50//1 32//1 57//1
f 50//32 42//32 41//32
f 59//39 43//30 42//30
f 45//29 43//29 60//29
f 36//31 61//31 51//31
f 61//31 36//31 52//31
f 62//40 46//35 51//35
f 38//36 53//36 54//36
f 46//35 62//40 53//40
f 63//1 47//1 54//1
f 47//1 63//1 55//1
f 64//18 48//18 55//18
f 48//18 64//18 56//18
f 17//1 56//37 65//41
f 58//38 17//1 66//42
f 67//31 49//31 58//31
f 49//31 67//31 57//31
f 57//1 68//1 50//1
f 42//32 50//32 59//32
f 43//30 59//39 69//39
f 69//32 60//32 43//32
f 70//36 51//36 61//36
f 51//36 70//36 62//36
f 71//28 54//28 53//28
f 62//40 71//43 53//40
f 54//28 71//28 63//28
f 72//1 55//1 63//1
f 55//1 72//1 64//1
f 64//6 65//6 56//6
f 17//1 65//41 73//44
f 66//42 17//1 73//44
f 74//21 58//21 66//21
f 58//21 74//21 67//21
f 68//1 57//1 67//1
f 68//22 59//22 50//22
f 75//45 69//39 59//39
f 60//32 69//32 76//32
f 70//28 77//28 62//28
f 71//43 62//40 77//43
f 71//17 72//17 63//17
f 78//1 64//1 72//1
f 65//6 64//6 79//6
f 79//3 73//3 65//3
f 80//7 66//7 73//7
f 66//7 80//7 74//7
f 81//1 67//1 74//1
f 67//1 81//1 68//1
f 59//22 68//22 75//22
f 69//39 75//45 82//45
f 82//22 76//22 69//22
f 77//28 70//28 83//28
f 77//43 84//46 71//43
f 72//17 71//17 84//17
f 64//1 78//1 79//1
f 84//5 78//5 72//5
f 73//3 79//3 80//3
f 80//1 81//1 74//1
f 85//8 68//8 81//8
f 68//8 85//8 75//8
f 85//47 82//45 75//45
f 76//22 82//22 86//22
f 87//17 77//17 83//17
f 84//46 77//43 88//46
f 89//1 79//1 78//1
f 78//5 84//5 90//5
f 79//1 89//1 80//1
f 81//1 80//1 89//1
f 81//4 91//4 85//4
f 82//45 85//47 92//47
f 82//8 93//8 86//8
f 77//17 87//17 88//17
f 88//46 90//48 84//46
f 90//2 89//2 78//2
f 91//4 81//4 89//4
f 91//49 92//47 85//47
f 93//8 82//8 92//8
f 87//5 94//5 88//5
f 90//48 88//46 94//48
f 89//2 90//2 91//2
f 92//47 91//49 95//49
f 92//4 96//4 93//4
f 94//5 87//5 97//5
f 94//48 91//49 90//48
f 91//49 94//48 95//49
f 96//4 92//4 95//4
f 97//2 95//2 94//2
f 95//2 97//2 96//2
f 3//50 2//50 1//50
f 4//50 1//50 2//50
f 3//50 5//50 2//50
f 3//3 1//3 6//3
f 1//50 4//50 7//50
f 4//2 2//2 8//2
f 9//50 2//50 5//50
f 5//7 3//7 10//7
f 11//3 6//3 1//3
f 6//7 10//7 3//7
f 12//50 7//50 4//50
f 1//6 7//6 11//6
f 13//2 8//2 2//2
f 8//5 14//5 4//5
f 2//4 9//4 13//4
f 5//50 15//50 9//50
f 10//21 16//21 5//21
f 17//50 6//51 11//52
f 17//50 10//53 6//51
f 7//50 12//50 18//50
f 12//5 4//5 14//5
f 19//6 11//6 7//6
f 13//54 20//54 8//55
f 14//56 8//55 21//56
f 22//4 13//4 9//4
f 23//50 9//50 15//50
f 15//21 5//21 16//21
f 16//57 10//53 17//50
f 17//50 11//52 19//58
f 24//50 18//50 12//50
f 7//18 18//18 19//18
f 14//17 25//17 12//17
f 26//55 8//55 20//54
f 20//54 13//54 27//59
f 26//55 21//56 8//55
f 21//56 28//60 14//56
f 22//59 27//59 13//54
f 9//8 23//8 22//8
f 15//50 29//50 23//50
f 15//31 16//31 29//31
f 30//61 16//57 17//50
f 17//50 19//58 31//62
f 18//50 24//50 32//50
f 24//17 12//17 25//17
f 31//18 19//18 18//18
f 25//60 14//56 28//60
f 26//2 20//2 33//2
f 20//4 27//4 34//4
f 21//5 26//5 35//5
f 21//17 35//17 28//17
f 27//59 22//59 36//63
f 37//8 22//8 23//8
f 38//50 23//50 29//50
f 30//31 29//31 16//31
f 39//64 30//61 17//50
f 17//50 31//62 40//65
f 41//50 32//50 24//50
f 18//29 32//29 31//29
f 25//28 42//28 24//28
f 28//60 43//66 25//60
f 34//2 33//2 20//2
f 33//5 35//5 26//5
f 44//4 34//4 27//4
f 45//17 28//17 35//17
f 37//63 36//63 22//59
f 27//8 36//8 44//8
f 37//22 23//22 46//22
f 38//22 46//22 23//22
f 29//50 47//50 38//50
f 29//36 30//36 47//36
f 39//36 47//36 30//36
f 48//67 39//64 17//50
f 40//29 31//29 32//29
f 49//68 17//50 40//65
f 41//50 50//50 32//50
f 41//28 24//28 42//28
f 42//66 25//60 43//66
f 28//28 45//28 43//28
f 36//63 37//63 51//69
f 52//8 44//8 36//8
f 46//69 51//69 37//63
f 46//32 38//32 53//32
f 54//50 38//50 47//50
f 47//28 39//28 55//28
f 48//28 55//28 39//28
f 56//70 48//67 17//50
f 32//32 57//32 40//32
f 58//71 17//50 49//68
f 49//32 40//32 57//32
f 57//50 32//50 50//50
f 41//36 42//36 50//36
f 42//66 43//66 59//72
f 60//28 43//28 45//28
f 51//22 61//22 36//22
f 52//22 36//22 61//22
f 51//69 46//69 62//73
f 54//32 53//32 38//32
f 53//73 62//73 46//69
f 54//50 47//50 63//50
f 55//50 63//50 47//50
f 55//17 48//17 64//17
f 56//17 64//17 48//17
f 65//74 56//70 17//50
f 66//75 17//50 58//71
f 58//22 49//22 67//22
f 57//22 67//22 49//22
f 50//50 68//50 57//50
f 59//36 50//36 42//36
f 69//72 59//72 43//66
f 43//36 60//36 69//36
f 61//32 51//32 70//32
f 62//32 70//32 51//32
f 53//29 54//29 71//29
f 53//73 71//76 62//73
f 63//29 71//29 54//29
f 63//50 55//50 72//50
f 64//50 72//50 55//50
f 56//5 65//5 64//5
f 73//77 65//74 17//50
f 73//77 17//50 66//75
f 66//8 58//8 74//8
f 67//8 74//8 58//8
f 67//50 57//50 68//50
f 50//31 59//31 68//31
f 59//72 69//72 75//78
f 76//36 69//36 60//36
f 62//29 77//29 70//29
f 77//76 62//73 71//76
f 63//18 72//18 71//18
f 72//50 64//50 78//50
f 79//5 64//5 65//5
f 65//2 73//2 79//2
f 73//4 66//4 80//4
f 74//4 80//4 66//4
f 74//50 67//50 81//50
f 68//50 81//50 67//50
f 75//31 68//31 59//31
f 82//78 75//78 69//72
f 69//31 76//31 82//31
f 83//29 70//29 77//29
f 71//76 84//79 77//76
f 84//18 71//18 72//18
f 79//50 78//50 64//50
f 72//6 78//6 84//6
f 80//2 79//2 73//2
f 74//50 81//50 80//50
f 81//21 68//21 85//21
f 75//21 85//21 68//21
f 75//78 82//78 85//80
f 86//31 82//31 76//31
f 83//18 77//18 87//18
f 88//79 77//76 84//79
f 78//50 79//50 89//50
f 90//6 84//6 78//6
f 80//50 89//50 79//50
f 89//50 80//50 81//50
f 85//7 91//7 81//7
f 92//80 85//80 82//78
f 86//21 93//21 82//21
f 88//18 87//18 77//18
f 84//79 90//81 88//79
f 78//3 89//3 90//3
f 89//7 81//7 91//7
f 85//80 92//80 91//82
f 92//21 82//21 93//21
f 88//6 94//6 87//6
f 94//81 88//79 90//81
f 91//3 90//3 89//3
f 95//82 91//82 92//80
f 93//7 96//7 92//7
f 97//6 87//6 94//6
f 90//81 91//82 94//81
f 95//82 94//81 91//82
f 95//7 92//7 96//7
f 94//3 95//3 97//3
f 96//3 97//3 95//3
