o mesh14/mesh14-geometry#mesh14-geometry
v 94.536416 1.0000000000000162 -72.79701
v 94.786416 1.382683000000016 -72.173131
v 94.786416 1.000000000000016 -72.09701
v 94.536416 1.1148050000000163 -72.819847
v 94.136416 1.382683000000016 -72.173131
v 94.786416 0.617317000000016 -72.173131
v 94.966416 1.1148050000000163 -72.819847
v 94.786416 1.707107000000016 -72.389904
v 94.136416 1.000000000000016 -72.09701
v 94.136416 1.707107000000016 -72.389904
v 94.536416 0.8851950000000162 -72.819847
v 94.136416 0.617317000000016 -72.173131
v 94.966416 1.0000000000000162 -72.79701
v 94.966416 1.2121320000000162 -72.884878
v 94.536416 1.2121320000000162 -72.884878
v 94.136416 1.000000000000016 -72.27701
v 94.136416 1.313800000000016 -72.339429
v 94.786416 0.2928930000000161 -72.389904
v 94.136416 0.2928930000000161 -72.389904
v 94.786416 1.9238800000000162 -72.714327
v 94.136416 1.9238800000000162 -72.714327
v 94.136416 1.5798280000000162 -72.517183
v 94.536416 0.7878680000000162 -72.884878
v 94.966416 0.8851950000000162 -72.819847
v 94.136416 0.6862000000000161 -72.339429
v 94.536416 1.2771640000000162 -72.982205
v 94.489242 1.313800000000016 -72.339429
v 94.786416 0.07612000000001613 -72.714327
v 94.136416 0.4201720000000161 -72.517183
v 94.966416 1.2771640000000162 -72.982205
v 94.786416 2.0000000000000164 -73.09701
v 94.136416 2.0000000000000164 -73.09701
v 94.136416 1.7575810000000163 -72.78321
v 94.489242 1.000000000000016 -72.27701
v 94.489242 1.5798280000000162 -72.517183
v 94.536416 0.7228360000000162 -72.982205
v 94.966416 0.7878680000000162 -72.884878
v 94.136416 0.07612000000001613 -72.714327
v 94.489242 0.6862000000000161 -72.339429
v 94.536416 1.3000000000000163 -73.09701
v 94.489242 1.7575810000000163 -72.78321
v 94.314416 1.0000000000000162 -73.09701
v 94.786416 1.6230796706651062e-14 -73.09701
v 94.966416 0.7228360000000162 -72.982205
v 94.489242 0.4201720000000161 -72.517183
v 94.136416 0.24241900000001615 -72.78321
v 94.966416 1.3000000000000163 -73.09701
v 94.536416 1.2771640000000162 -73.211815
v 94.136416 1.9238800000000162 -73.479694
v 94.136416 1.8200000000000163 -73.09701
v 94.489242 1.8200000000000163 -73.09701
v 94.536416 0.7000000000000162 -73.09701
v 94.966416 0.7000000000000162 -73.09701
v 94.136416 1.6230796706651062e-14 -73.09701
v 94.786416 1.9238800000000162 -73.479694
v 94.786416 0.07612000000001631 -73.479694
v 94.489242 0.24241900000001615 -72.78321
v 94.136416 0.18000000000001623 -73.09701
v 94.966416 1.2771640000000162 -73.211815
v 94.536416 1.2121320000000162 -73.309142
v 94.136416 1.7071070000000164 -73.804117
v 94.136416 1.7575810000000163 -73.410811
v 94.489242 1.7575810000000163 -73.410811
v 94.536416 0.7228360000000162 -73.211815
v 94.966416 0.7228360000000162 -73.211815
v 94.136416 0.07612000000001631 -73.479694
v 94.489242 0.18000000000001623 -73.09701
v 94.136416 0.2424190000000163 -73.410811
v 94.786416 1.7071070000000164 -73.804117
v 94.136416 1.5798280000000164 -73.676838
v 94.489242 1.5798280000000164 -73.676838
v 94.536416 0.7878680000000163 -73.309142
v 94.786416 0.2928930000000164 -73.804117
v 94.489242 0.2424190000000163 -73.410811
v 94.966416 1.2121320000000162 -73.309142
v 94.536416 1.1148050000000163 -73.374174
v 94.786416 1.3826830000000165 -74.02089
v 94.136416 1.3138000000000165 -73.854592
v 94.489242 1.3138000000000165 -73.854592
v 94.966416 0.7878680000000163 -73.309142
v 94.136416 0.42017200000001637 -73.676838
v 94.136416 0.2928930000000164 -73.804117
v 94.489242 0.42017200000001637 -73.676838
v 94.966416 1.1148050000000163 -73.374174
v 94.136416 1.3826830000000165 -74.02089
v 94.489242 1.0000000000000164 -73.91701
v 94.536416 0.8851950000000163 -73.374174
v 94.966416 0.8851950000000163 -73.374174
v 94.786416 0.6173170000000164 -74.02089
v 94.489242 0.6862000000000165 -73.854592
v 94.536416 1.0000000000000162 -73.39701
v 94.966416 1.0000000000000162 -73.39701
v 94.786416 1.0000000000000164 -74.09701
v 94.136416 1.0000000000000164 -73.91701
v 94.136416 0.6862000000000165 -73.854592
v 94.136416 0.6173170000000164 -74.02089
v 94.136416 1.0000000000000164 -74.09701
vn 0.9417420473413738 7.468159799630936e-17 -0.336336016907612
vn 0.9417420577193724 -0.12871000788863654 -0.3107340190448886
vn 0 0.1950900659087511 0.9807853313461206
vn 0.9417420577193724 0.12871000788863665 -0.3107340190448885
vn 0.9417418083009403 -0.2378259515886298 -0.2378259515886299
vn 0 0.5555698928305778 0.8314698396094836
vn 0 -0.1950900659087515 0.9807853313461203
vn -1 0 0
vn 0.9417418083009403 0.2378259515886299 -0.2378259515886298
vn 0 -0.5555698928305781 0.8314698396094832
vn 0.9417420577193724 -0.3107340190448885 -0.12871000788863665
vn 0 0.8314698396094832 0.5555698928305781
vn 0 -0.1950900659087511 -0.9807853313461206
vn 0 -0.5555698928305778 -0.8314698396094836
vn 0.9417420577193724 0.3107340190448886 -0.12871000788863654
vn 0 -0.8314698396094836 0.5555698928305778
vn 0.9417420473413738 -0.336336016907612 -7.468159799630936e-17
vn 0 0.9807853313461203 0.1950900659087515
vn 0 0.1950900659087515 -0.9807853313461203
vn 0 0.5555698928305781 -0.8314698396094832
vn 0 -0.8314698396094832 -0.5555698928305781
vn -0.9780189576434669 -4.6299850835370786e-17 0.20851599096948542
vn -0.9780188646847422 0.07979598895970698 0.19264397334645597
vn -0.9780189800195613 0.14744299698781327 0.14744299698781332
vn 0.9417420473413738 0.336336016907612 7.468159799630936e-17
vn 0 -0.9807853313461206 0.1950900659087511
vn 0.9417420577193724 -0.3107340190448886 0.12871000788863654
vn 0 0.9807853313461206 -0.1950900659087511
vn 0 -0.9807853313461203 -0.1950900659087515
vn -0.9780188646847422 -0.07979598895970706 0.19264397334645592
vn -0.9780188646847424 0.19264397334645594 0.07979598895970708
vn -0.9780189800195613 -0.14744299698781332 0.14744299698781327
vn 0 0.8314698396094836 -0.5555698928305778
vn -0.9780189576434669 0.20851599096948542 4.6299850835370786e-17
vn 0.9417420577193724 0.3107340190448885 0.12871000788863665
vn -0.9780188646847422 -0.19264397334645597 0.07979598895970698
vn 0.9417418083009403 -0.2378259515886299 0.2378259515886298
vn -0.9780188646847422 0.19264397334645597 -0.07979598895970698
vn -0.9780189576434669 -0.20851599096948542 -4.6299850835370786e-17
vn -0.9780189800195613 0.14744299698781332 -0.14744299698781327
vn 0.9417418083009403 0.2378259515886298 0.2378259515886299
vn -0.9780188646847424 -0.19264397334645594 -0.07979598895970708
vn 0.9417420577193724 -0.12871000788863665 0.3107340190448885
vn -0.9780188646847422 0.07979598895970706 -0.19264397334645592
vn -0.9780189800195613 -0.14744299698781327 -0.14744299698781332
vn -0.9780189576434669 4.6299850835370786e-17 -0.20851599096948542
vn 0.9417420577193724 0.12871000788863654 0.3107340190448886
vn -0.9780188646847422 -0.07979598895970698 -0.19264397334645597
vn 0.9417420473413738 -7.468159799630936e-17 0.336336016907612
vn -0.9417420473413738 -7.468159799630936e-17 0.336336016907612
vn -0.9417420577193724 0.12871000788863654 0.3107340190448886
vn -0.9417420577193724 -0.12871000788863665 0.3107340190448885
vn -0.9417418083009403 0.2378259515886298 0.2378259515886299
vn 1 0 0
vn -0.9417418083009403 -0.2378259515886299 0.2378259515886298
vn -0.9417420577193724 0.3107340190448885 0.12871000788863665
vn -0.9417420577193724 -0.3107340190448886 0.12871000788863654
vn -0.9417420473413738 0.336336016907612 7.468159799630936e-17
vn 0.9780188646847422 -0.07979598895970698 -0.19264397334645597
vn 0.9780189576434669 4.6299850835370786e-17 -0.20851599096948542
vn 0.9780189800195613 -0.14744299698781327 -0.14744299698781332
vn -0.9417420473413738 -0.336336016907612 -7.468159799630936e-17
vn -0.9417420577193724 0.3107340190448886 -0.12871000788863654
vn 0.9780188646847422 0.07979598895970706 -0.19264397334645592
vn 0.9780188646847424 -0.19264397334645594 -0.07979598895970708
vn 0.9780189800195613 0.14744299698781332 -0.14744299698781327
vn 0.9780189576434669 -0.20851599096948542 -4.6299850835370786e-17
vn -0.9417420577193724 -0.3107340190448885 -0.12871000788863665
vn 0.9780188646847422 0.19264397334645597 -0.07979598895970698
vn -0.9417418083009403 0.2378259515886299 -0.2378259515886298
vn 0.9780188646847422 -0.19264397334645597 0.07979598895970698
vn 0.9780189576434669 0.20851599096948542 4.6299850835370786e-17
vn 0.9780189800195613 -0.14744299698781332 0.14744299698781327
vn -0.9417418083009403 -0.2378259515886298 -0.2378259515886299
vn 0.9780188646847424 0.19264397334645594 0.07979598895970708
vn -0.9417420577193724 0.12871000788863665 -0.3107340190448885
vn 0.9780188646847422 -0.07979598895970706 0.19264397334645592
vn 0.9780189800195613 0.14744299698781327 0.14744299698781332
vn 0.9780189576434669 -4.6299850835370786e-17 0.20851599096948542
vn -0.9417420577193724 -0.12871000788863654 -0.3107340190448886
vn 0.9780188646847422 0.07979598895970698 0.19264397334645597
vn -0.9417420473413738 7.468159799630936e-17 -0.336336016907612
f 1//1 2//2 3//1
f 2//2 1//1 4//2
f 5//3 3//3 2//3
f 6//4 1//1 3//1
f 1//3 7//3 4//3
f 4//2 8//5 2//2
f 3//3 5//3 9//3
f 2//6 10//6 5//6
f 1//1 6//4 11//4
f 3//7 12//7 6//7
f 7//3 1//3 13//3
f 14//6 4//6 7//6
f 8//5 4//2 15//5
f 10//6 2//6 8//6
f 5//8 16//8 9//8
f 12//7 3//7 9//7
f 10//8 17//8 5//8
f 18//9 11//4 6//4
f 11//7 13//7 1//7
f 19//10 6//10 12//10
f 4//6 14//6 15//6
f 15//5 20//11 8//5
f 8//12 21//12 10//12
f 16//8 5//8 17//8
f 16//8 12//8 9//8
f 17//8 10//8 22//8
f 11//4 18//9 23//9
f 6//10 19//10 18//10
f 13//7 11//7 24//7
f 25//8 19//8 12//8
f 14//12 26//12 15//12
f 20//11 15//5 26//11
f 21//12 8//12 20//12
f 21//8 22//8 10//8
f 27//13 16//13 17//13
f 12//8 16//8 25//8
f 22//14 27//14 17//14
f 28//15 23//9 18//9
f 23//10 24//10 11//10
f 19//16 28//16 18//16
f 19//8 25//8 29//8
f 26//12 14//12 30//12
f 26//11 31//17 20//11
f 20//18 32//18 21//18
f 22//8 21//8 33//8
f 16//13 27//13 34//13
f 34//19 25//19 16//19
f 27//14 22//14 35//14
f 23//9 28//15 36//15
f 24//10 23//10 37//10
f 28//16 19//16 38//16
f 39//20 29//20 25//20
f 29//8 38//8 19//8
f 30//18 40//18 26//18
f 31//17 26//11 40//17
f 32//18 20//18 31//18
f 32//8 33//8 21//8
f 41//21 22//21 33//21
f 42//8 34//22 27//23
f 25//19 34//19 39//19
f 22//21 41//21 35//21
f 42//8 27//23 35//24
f 43//25 36//15 28//15
f 44//16 23//16 36//16
f 23//16 44//16 37//16
f 38//26 43//26 28//26
f 29//20 39//20 45//20
f 38//8 29//8 46//8
f 40//18 30//18 47//18
f 48//27 31//17 40//17
f 31//28 49//28 32//28
f 33//8 32//8 50//8
f 33//29 51//29 41//29
f 42//8 39//30 34//22
f 42//8 35//24 41//31
f 36//15 43//25 52//25
f 36//26 53//26 44//26
f 43//26 38//26 54//26
f 42//8 45//32 39//30
f 45//33 46//33 29//33
f 46//8 54//8 38//8
f 47//28 48//28 40//28
f 31//17 48//27 55//27
f 49//28 31//28 55//28
f 49//8 50//8 32//8
f 51//29 33//29 50//29
f 42//8 41//31 51//34
f 56//35 52//25 43//25
f 53//26 36//26 52//26
f 54//29 56//29 43//29
f 42//8 57//36 45//32
f 46//33 45//33 57//33
f 54//8 46//8 58//8
f 48//28 47//28 59//28
f 60//37 55//27 48//27
f 55//33 61//33 49//33
f 50//8 49//8 62//8
f 50//26 63//26 51//26
f 63//38 42//8 51//34
f 52//25 56//35 64//35
f 52//29 65//29 53//29
f 56//29 54//29 66//29
f 67//39 57//36 42//8
f 57//28 58//28 46//28
f 68//8 54//8 58//8
f 59//33 60//33 48//33
f 55//27 60//37 69//37
f 61//33 55//33 69//33
f 70//8 49//8 61//8
f 49//8 70//8 62//8
f 63//26 50//26 62//26
f 71//40 42//8 63//38
f 56//35 72//41 64//35
f 65//29 52//29 64//29
f 54//8 68//8 66//8
f 66//21 73//21 56//21
f 58//28 57//28 67//28
f 74//42 67//39 42//8
f 67//18 68//18 58//18
f 60//33 59//33 75//33
f 76//43 69//37 60//37
f 77//20 61//20 69//20
f 61//8 78//8 70//8
f 71//16 62//16 70//16
f 62//16 71//16 63//16
f 79//44 42//8 71//40
f 72//41 56//35 73//41
f 80//21 64//21 72//21
f 64//21 80//21 65//21
f 81//8 66//8 68//8
f 73//21 66//21 82//21
f 68//18 67//18 74//18
f 83//45 74//42 42//8
f 84//20 60//20 75//20
f 69//37 76//43 77//43
f 60//20 84//20 76//20
f 61//20 77//20 85//20
f 78//8 61//8 85//8
f 79//10 70//10 78//10
f 70//10 79//10 71//10
f 86//46 42//8 79//44
f 73//41 87//47 72//41
f 72//14 88//14 80//14
f 66//8 81//8 82//8
f 74//12 81//12 68//12
f 82//14 89//14 73//14
f 81//12 74//12 83//12
f 90//48 83//45 42//8
f 91//49 77//43 76//43
f 92//19 76//19 84//19
f 93//19 85//19 77//19
f 85//8 94//8 78//8
f 94//7 79//7 78//7
f 86//46 90//48 42//8
f 79//7 94//7 86//7
f 87//47 73//41 89//47
f 88//14 72//14 87//14
f 95//8 82//8 81//8
f 89//14 82//14 96//14
f 90//6 81//6 83//6
f 77//43 91//49 93//49
f 76//19 92//19 91//19
f 85//19 93//19 97//19
f 94//8 85//8 97//8
f 86//3 95//3 90//3
f 95//3 86//3 94//3
f 89//47 91//49 87//47
f 91//13 88//13 87//13
f 82//8 95//8 96//8
f 81//6 90//6 95//6
f 97//13 89//13 96//13
f 91//49 89//47 93//49
f 88//13 91//13 92//13
f 89//13 97//13 93//13
f 96//8 94//8 97//8
f 94//8 96//8 95//8
f 3//50 2//51 1//50
f 4//51 1//50 2//51
f 2//13 3//13 5//13
f 3//50 1//50 6//52
f 4//13 7//13 1//13
f 2//51 8//53 4//51
f 9//13 5//13 3//13
f 5//14 10//14 2//14
f 11//52 6//52 1//50
f 6//19 12//19 3//19
f 13//13 1//13 7//13
f 7//14 4//14 14//14
f 15//53 4//51 8//53
f 8//14 2//14 10//14
f 9//54 16//54 5//54
f 9//19 3//19 12//19
f 5//54 17//54 10//54
f 6//52 11//52 18//55
f 1//19 13//19 11//19
f 12//20 6//20 19//20
f 15//14 14//14 4//14
f 8//53 20//56 15//53
f 10//21 21//21 8//21
f 17//54 5//54 16//54
f 9//54 12//54 16//54
f 22//54 10//54 17//54
f 23//55 18//55 11//52
f 18//20 19//20 6//20
f 24//19 11//19 13//19
f 12//54 19//54 25//54
f 15//21 26//21 14//21
f 26//56 15//53 20//56
f 20//21 8//21 21//21
f 10//54 22//54 21//54
f 17//3 16//3 27//3
f 25//54 16//54 12//54
f 17//6 27//6 22//6
f 18//55 23//55 28//57
f 11//20 24//20 23//20
f 18//33 28//33 19//33
f 29//54 25//54 19//54
f 30//21 14//21 26//21
f 20//56 31//58 26//56
f 21//29 32//29 20//29
f 33//54 21//54 22//54
f 34//3 27//3 16//3
f 16//7 25//7 34//7
f 35//6 22//6 27//6
f 36//57 28//57 23//55
f 37//20 23//20 24//20
f 38//33 19//33 28//33
f 25//10 29//10 39//10
f 19//54 38//54 29//54
f 26//29 40//29 30//29
f 40//58 26//56 31//58
f 31//29 20//29 32//29
f 21//54 33//54 32//54
f 33//12 22//12 41//12
f 27//59 34//60 42//54
f 39//7 34//7 25//7
f 35//12 41//12 22//12
f 35//61 27//59 42//54
f 28//57 36//57 43//62
f 36//33 23//33 44//33
f 37//33 44//33 23//33
f 28//28 43//28 38//28
f 45//10 39//10 29//10
f 46//54 29//54 38//54
f 47//29 30//29 40//29
f 40//58 31//58 48//63
f 32//26 49//26 31//26
f 50//54 32//54 33//54
f 41//18 51//18 33//18
f 34//60 39//64 42//54
f 41//65 35//61 42//54
f 52//62 43//62 36//57
f 44//28 53//28 36//28
f 54//28 38//28 43//28
f 39//64 45//66 42//54
f 29//16 46//16 45//16
f 38//54 54//54 46//54
f 40//26 48//26 47//26
f 55//63 48//63 31//58
f 55//26 31//26 49//26
f 32//54 50//54 49//54
f 50//18 33//18 51//18
f 51//67 41//65 42//54
f 43//62 52//62 56//68
f 52//28 36//28 53//28
f 43//18 56//18 54//18
f 45//66 57//69 42//54
f 57//16 45//16 46//16
f 58//54 46//54 54//54
f 59//26 47//26 48//26
f 48//63 55//63 60//70
f 49//16 61//16 55//16
f 62//54 49//54 50//54
f 51//28 63//28 50//28
f 51//67 42//54 63//71
f 64//68 56//68 52//62
f 53//18 65//18 52//18
f 66//18 54//18 56//18
f 42//54 57//69 67//72
f 46//26 58//26 57//26
f 58//54 54//54 68//54
f 48//16 60//16 59//16
f 69//70 60//70 55//63
f 69//16 55//16 61//16
f 61//54 49//54 70//54
f 62//54 70//54 49//54
f 62//28 50//28 63//28
f 63//71 42//54 71//73
f 64//68 72//74 56//68
f 64//18 52//18 65//18
f 66//54 68//54 54//54
f 56//12 73//12 66//12
f 67//26 57//26 58//26
f 42//54 67//72 74//75
f 58//29 68//29 67//29
f 75//16 59//16 60//16
f 60//70 69//70 76//76
f 69//10 61//10 77//10
f 70//54 78//54 61//54
f 70//33 62//33 71//33
f 63//33 71//33 62//33
f 71//73 42//54 79//77
f 73//74 56//68 72//74
f 72//12 64//12 80//12
f 65//12 80//12 64//12
f 68//54 66//54 81//54
f 82//12 66//12 73//12
f 74//29 67//29 68//29
f 42//54 74//75 83//78
f 75//10 60//10 84//10
f 77//76 76//76 69//70
f 76//10 84//10 60//10
f 85//10 77//10 61//10
f 85//54 61//54 78//54
f 78//20 70//20 79//20
f 71//20 79//20 70//20
f 79//77 42//54 86//79
f 72//74 87//80 73//74
f 80//6 88//6 72//6
f 82//54 81//54 66//54
f 68//21 81//21 74//21
f 73//6 89//6 82//6
f 83//21 74//21 81//21
f 42//54 83//78 90//81
f 76//76 77//76 91//82
f 84//7 76//7 92//7
f 77//7 85//7 93//7
f 78//54 94//54 85//54
f 78//19 79//19 94//19
f 42//54 90//81 86//79
f 86//19 94//19 79//19
f 89//80 73//74 87//80
f 87//6 72//6 88//6
f 81//54 82//54 95//54
f 96//6 82//6 89//6
f 83//14 81//14 90//14
f 93//82 91//82 77//76
f 91//7 92//7 76//7
f 97//7 93//7 85//7
f 97//54 85//54 94//54
f 90//13 95//13 86//13
f 94//13 86//13 95//13
f 87//80 91//82 89//80
f 87//3 88//3 91//3
f 96//54 95//54 82//54
f 95//14 90//14 81//14
f 96//3 89//3 97//3
f 93//82 89//80 91//82
f 92//3 91//3 88//3
f 93//3 97//3 89//3
f 97//54 94//54 96//54
f 95//54 96//54 94//54
