o mesh15/mesh15-geometry#mesh15-geometry
v 95.313166 2.7500000000000164 -73.617312
v 95.204416 1.7500000000000164 -73.588172
v 95.313166 1.7500000000000164 -73.617312
v 95.204416 2.7500000000000164 -73.588172
v 95.379416 1.7500000000000164 -73.5016
v 95.392776 2.7500000000000164 -73.696922
v 95.095666 1.7500000000000164 -73.617312
v 95.204416 1.7500000000000162 -73.454709
v 95.392776 1.7500000000000164 -73.696922
v 95.095666 2.7500000000000164 -73.617312
v 95.204416 0.5500000000000164 -73.454709
v 95.507525 1.7500000000000164 -73.629709
v 95.421916 1.7500000000000164 -73.805672
v 95.016055 1.7500000000000164 -73.696922
v 95.029416 1.7500000000000164 -73.5016
v 95.379416 0.5500000000000164 -73.5016
v 95.029416 0.5500000000000164 -73.5016
v 95.421916 2.7500000000000164 -73.805672
v 95.016055 2.7500000000000164 -73.696922
v 95.507525 0.5500000000000164 -73.629709
v 95.554416 1.7500000000000164 -73.804709
v 95.392776 1.7500000000000164 -73.914422
v 94.986916 2.7500000000000164 -73.805672
v 94.901307 1.7500000000000164 -73.629709
v 94.901307 0.5500000000000164 -73.629709
v 95.554416 0.5500000000000165 -73.804709
v 95.507525 1.7500000000000164 -73.979709
v 95.392776 2.7500000000000164 -73.914422
v 94.986916 1.7500000000000164 -73.805672
v 95.554416 1.0419510000000165 -73.804709
v 95.507525 0.5500000000000165 -73.979709
v 95.313166 1.7500000000000164 -73.994033
v 95.379416 1.7500000000000164 -74.107818
v 95.016055 2.7500000000000164 -73.914422
v 94.854416 1.7500000000000164 -73.804709
v 95.554416 0.550000000000016 -72.221857
v 95.554416 0.5500000000000165 -74.016936
v 95.554416 1.5216380000000165 -73.804709
v 95.554416 1.6787270000000165 -73.804709
v 95.470298 0.5500000000000165 -74.016936
v 95.313166 2.7500000000000164 -73.994033
v 95.016055 1.7500000000000164 -73.914422
v 94.901307 1.7500000000000164 -73.979709
v 94.854416 0.5500000000000165 -73.804709
v 95.554416 1.041951000000016 -72.119547
v 95.554416 1.0419510000000165 -74.119247
v 95.554416 1.521638000000016 -72.269161
v 95.204416 2.7500000000000164 -74.023172
v 95.204416 1.7500000000000164 -74.154709
v 95.379416 0.5500000000000165 -74.107818
v 95.095666 2.7500000000000164 -73.994033
v 94.854416 1.6787270000000165 -73.804709
v 94.854416 0.550000000000016 -72.221857
v 95.554416 1.8681960000000162 -72.633003
v 95.554416 1.5216380000000165 -73.969632
v 95.554416 1.8681960000000164 -73.605791
v 95.204416 1.7500000000000164 -74.023172
v 95.095666 1.7500000000000164 -73.994033
v 95.029416 1.7500000000000164 -74.107818
v 94.854416 1.5216380000000165 -73.804709
v 94.854416 1.041951000000016 -72.119547
v 94.854416 1.0419510000000165 -74.119247
v 94.854416 1.8681960000000162 -72.633003
v 94.854416 1.5216380000000165 -73.969632
v 95.204416 0.5500000000000165 -74.154709
v 94.901307 0.5500000000000165 -73.979709
v 94.854416 1.0419510000000165 -73.804709
v 94.854416 1.8681960000000164 -73.605791
v 94.854416 1.521638000000016 -72.269161
v 94.938534 0.5500000000000165 -74.016936
v 95.554416 1.9943080000000162 -73.119397
v 94.854416 1.9943080000000162 -73.119397
v 94.854416 0.5500000000000165 -74.016936
v 95.029416 0.5500000000000165 -74.107818
vn 0.2588189595935754 -2.144786235727374e-16 0.965925849201117
vn 0 1 2.220446049250313e-16
vn 0.7071067811865476 -1.5700924586837752e-16 0.7071067811865476
vn -0.2588189595935754 -2.144786235727374e-16 0.965925849201117
vn 0.965925849201117 -5.74693536300631e-17 0.2588189595935754
vn -0.7071067811865476 -1.5700924586837752e-16 0.7071067811865476
vn 0.965925849201117 5.74693536300631e-17 -0.2588189595935754
vn -0.965925849201117 -5.74693536300631e-17 0.2588189595935754
vn 0.7071067811865476 1.5700924586837752e-16 -0.7071067811865476
vn -0.965925849201117 5.74693536300631e-17 -0.2588189595935754
vn 1 0 0
vn 0.2588189595935754 2.144786235727374e-16 -0.965925849201117
vn -0.7071067811865476 1.5700924586837752e-16 -0.7071067811865476
vn 0 -0.2036119322737961 0.97905167434397
vn 0 -0.2036119322737957 -0.9790516743439702
vn 0 0.29775298415090656 0.9546429491853118
vn 0 0.7240951234491778 0.689700117585259
vn 0 0.29775298415090706 -0.9546429491853118
vn 0 0.7240951234491779 -0.6897001175852585
vn -0.2588189595935754 2.144786235727374e-16 -0.965925849201117
vn -1 0 0
vn 0 0.9679924982718465 0.25097912919091275
vn 0 0.9679924982718467 -0.2509791291909123
vn 0 -1 -2.220446049250313e-16
vn 0 0.2036119322737961 -0.97905167434397
vn 0 0.2036119322737957 0.9790516743439702
vn 0 -0.29775298415090656 -0.9546429491853118
vn 0 -0.7240951234491778 -0.689700117585259
vn 0 -0.29775298415090706 0.9546429491853118
vn 0 -0.7240951234491779 0.6897001175852585
vn 0 -0.9679924982718465 -0.25097912919091275
vn 0 -0.9679924982718467 0.2509791291909123
f 1//1 2//1 3//1
f 2//1 1//1 4//1
f 2//2 5//2 3//2
f 3//3 6//3 1//3
f 4//4 7//4 2//4
f 5//2 2//2 8//2
f 5//2 9//2 3//2
f 6//3 3//3 9//3
f 7//4 4//4 10//4
f 7//2 8//2 2//2
f 11//1 5//1 8//1
f 9//2 5//2 12//2
f 13//5 6//5 9//5
f 10//6 14//6 7//6
f 8//2 7//2 15//2
f 5//1 11//1 16//1
f 8//4 17//4 11//4
f 16//3 12//3 5//3
f 12//2 13//2 9//2
f 6//5 13//5 18//5
f 14//6 10//6 19//6
f 14//2 15//2 7//2
f 17//4 8//4 15//4
f 12//3 16//3 20//3
f 13//2 12//2 21//2
f 22//7 18//7 13//7
f 23//8 14//8 19//8
f 15//2 14//2 24//2
f 15//6 25//6 17//6
f 26//5 12//5 20//5
f 12//5 26//5 21//5
f 27//2 13//2 21//2
f 18//7 22//7 28//7
f 13//2 27//2 22//2
f 14//8 23//8 29//8
f 29//2 24//2 14//2
f 25//6 15//6 24//6
f 21//5 26//5 30//5
f 21//7 31//7 27//7
f 32//9 28//9 22//9
f 33//2 22//2 27//2
f 34//10 29//10 23//10
f 24//2 29//2 35//2
f 35//8 25//8 24//8
f 31//7 30//7 26//7
f 30//11 36//11 26//11
f 37//11 30//11 26//11
f 21//5 30//5 38//5
f 39//7 31//7 21//7
f 40//9 27//9 31//9
f 28//9 32//9 41//9
f 22//2 33//2 32//2
f 27//9 40//9 33//9
f 29//10 34//10 42//10
f 29//2 43//2 35//2
f 25//8 35//8 44//8
f 30//7 31//7 38//7
f 36//11 30//11 45//11
f 30//11 37//11 46//11
f 47//11 30//11 38//11
f 46//11 38//11 30//11
f 21//5 38//5 39//5
f 38//7 31//7 39//7
f 32//12 48//12 41//12
f 49//2 32//2 33//2
f 33//9 40//9 50//9
f 51//13 42//13 34//13
f 43//2 29//2 42//2
f 43//10 52//10 35//10
f 44//8 35//8 52//8
f 30//11 47//11 45//11
f 45//14 53//14 36//14
f 40//15 46//15 37//15
f 38//11 54//11 47//11
f 38//11 46//11 55//11
f 56//11 38//11 39//11
f 55//11 39//11 38//11
f 48//12 32//12 57//12
f 32//2 49//2 57//2
f 50//12 49//12 33//12
f 42//13 51//13 58//13
f 42//2 59//2 43//2
f 52//10 43//10 60//10
f 44//8 52//8 60//8
f 47//16 61//16 45//16
f 53//14 45//14 61//14
f 46//15 40//15 62//15
f 54//11 38//11 56//11
f 63//17 47//17 54//17
f 46//18 64//18 55//18
f 55//19 56//19 39//19
f 57//20 51//20 48//20
f 49//2 58//2 57//2
f 49//12 50//12 65//12
f 51//20 57//20 58//20
f 59//2 42//2 58//2
f 59//13 66//13 43//13
f 60//10 43//10 67//10
f 64//21 60//21 52//21
f 60//21 68//21 52//21
f 44//8 60//8 67//8
f 61//16 47//16 69//16
f 67//21 53//21 61//21
f 70//15 62//15 40//15
f 64//18 46//18 62//18
f 56//11 71//11 54//11
f 47//17 63//17 69//17
f 54//22 72//22 63//22
f 64//19 56//19 55//19
f 58//2 49//2 59//2
f 65//20 59//20 49//20
f 66//13 59//13 70//13
f 44//10 43//10 66//10
f 67//10 43//10 44//10
f 64//21 67//21 60//21
f 67//21 69//21 60//21
f 52//19 56//19 64//19
f 60//21 63//21 68//21
f 56//19 52//19 68//19
f 62//21 44//21 67//21
f 53//21 67//21 44//21
f 69//21 67//21 61//21
f 62//15 70//15 73//15
f 67//21 64//21 62//21
f 68//23 71//23 56//23
f 72//22 54//22 71//22
f 63//21 60//21 69//21
f 68//21 63//21 72//21
f 59//20 65//20 74//20
f 70//13 59//13 74//13
f 44//21 62//21 73//21
f 71//23 68//23 72//23
f 3//20 2//20 1//20
f 4//20 1//20 2//20
f 3//24 5//24 2//24
f 1//13 6//13 3//13
f 2//12 7//12 4//12
f 8//24 2//24 5//24
f 3//24 9//24 5//24
f 9//13 3//13 6//13
f 10//12 4//12 7//12
f 2//24 8//24 7//24
f 8//20 5//20 11//20
f 12//24 5//24 9//24
f 9//10 6//10 13//10
f 7//9 14//9 10//9
f 15//24 7//24 8//24
f 16//20 11//20 5//20
f 11//12 17//12 8//12
f 5//13 12//13 16//13
f 9//24 13//24 12//24
f 18//10 13//10 6//10
f 19//9 10//9 14//9
f 7//24 15//24 14//24
f 15//12 8//12 17//12
f 20//13 16//13 12//13
f 21//24 12//24 13//24
f 13//8 18//8 22//8
f 19//7 14//7 23//7
f 24//24 14//24 15//24
f 17//9 25//9 15//9
f 20//10 12//10 26//10
f 21//10 26//10 12//10
f 21//24 13//24 27//24
f 28//8 22//8 18//8
f 22//24 27//24 13//24
f 29//7 23//7 14//7
f 14//24 24//24 29//24
f 24//9 15//9 25//9
f 30//10 26//10 21//10
f 27//8 31//8 21//8
f 22//6 28//6 32//6
f 27//24 22//24 33//24
f 23//5 29//5 34//5
f 35//24 29//24 24//24
f 24//7 25//7 35//7
f 26//8 30//8 31//8
f 26//21 36//21 30//21
f 26//21 30//21 37//21
f 38//10 30//10 21//10
f 21//8 31//8 39//8
f 31//6 27//6 40//6
f 41//6 32//6 28//6
f 32//24 33//24 22//24
f 33//6 40//6 27//6
f 42//5 34//5 29//5
f 35//24 43//24 29//24
f 44//7 35//7 25//7
f 38//8 31//8 30//8
f 45//21 30//21 36//21
f 46//21 37//21 30//21
f 38//21 30//21 47//21
f 30//21 38//21 46//21
f 39//10 38//10 21//10
f 39//8 31//8 38//8
f 41//4 48//4 32//4
f 33//24 32//24 49//24
f 50//6 40//6 33//6
f 34//3 42//3 51//3
f 42//24 29//24 43//24
f 35//5 52//5 43//5
f 52//7 35//7 44//7
f 45//21 47//21 30//21
f 36//25 53//25 45//25
f 37//26 46//26 40//26
f 47//21 54//21 38//21
f 55//21 46//21 38//21
f 39//21 38//21 56//21
f 38//21 39//21 55//21
f 57//4 32//4 48//4
f 57//24 49//24 32//24
f 33//4 49//4 50//4
f 58//3 51//3 42//3
f 43//24 59//24 42//24
f 60//5 43//5 52//5
f 60//7 52//7 44//7
f 45//27 61//27 47//27
f 61//25 45//25 53//25
f 62//26 40//26 46//26
f 56//21 38//21 54//21
f 54//28 47//28 63//28
f 55//29 64//29 46//29
f 39//30 56//30 55//30
f 48//1 51//1 57//1
f 57//24 58//24 49//24
f 65//4 50//4 49//4
f 58//1 57//1 51//1
f 58//24 42//24 59//24
f 43//3 66//3 59//3
f 67//5 43//5 60//5
f 52//11 60//11 64//11
f 52//11 68//11 60//11
f 67//7 60//7 44//7
f 69//27 47//27 61//27
f 61//11 53//11 67//11
f 40//26 62//26 70//26
f 62//29 46//29 64//29
f 54//21 71//21 56//21
f 69//28 63//28 47//28
f 63//31 72//31 54//31
f 55//30 56//30 64//30
f 59//24 49//24 58//24
f 49//1 59//1 65//1
f 70//3 59//3 66//3
f 66//5 43//5 44//5
f 44//5 43//5 67//5
f 60//11 67//11 64//11
f 60//11 69//11 67//11
f 64//30 56//30 52//30
f 68//11 63//11 60//11
f 68//30 52//30 56//30
f 67//11 44//11 62//11
f 44//11 67//11 53//11
f 61//11 67//11 69//11
f 73//26 70//26 62//26
f 62//11 64//11 67//11
f 56//32 71//32 68//32
f 71//31 54//31 72//31
f 69//11 60//11 63//11
f 72//11 63//11 68//11
f 74//1 65//1 59//1
f 74//3 59//3 70//3
f 73//11 62//11 44//11
f 72//32 68//32 71//32
