o mesh16/mesh16-geometry#mesh16-geometry
v 82.925812 1.382683000000018 -81.397754
v 83.175812 1.0000000000000182 -82.021633
v 82.925812 1.000000000000018 -81.321633
v 83.175812 1.1148050000000183 -82.044469
v 82.925812 0.6173170000000181 -81.397754
v 83.575812 1.382683000000018 -81.397754
v 82.925812 1.7071070000000181 -81.614527
v 82.745812 1.0000000000000182 -82.021633
v 83.175812 0.8851950000000182 -82.044469
v 83.575812 1.000000000000018 -81.321633
v 83.575812 1.7071070000000181 -81.614527
v 83.175812 1.2121320000000182 -82.109501
v 82.745812 1.1148050000000183 -82.044469
v 82.925812 0.2928930000000181 -81.614527
v 83.575812 0.6173170000000181 -81.397754
v 83.575812 1.0000000000000182 -81.501633
v 83.575812 1.3138000000000183 -81.564052
v 82.925812 1.9238800000000182 -81.93895
v 82.745812 0.8851950000000182 -82.044469
v 83.175812 0.7878680000000182 -82.109501
v 83.575812 0.2928930000000181 -81.614527
v 83.575812 1.5798280000000182 -81.741806
v 83.175812 1.2771640000000182 -82.206828
v 82.745812 1.2121320000000182 -82.109501
v 83.575812 1.9238800000000182 -81.93895
v 82.745812 0.7878680000000182 -82.109501
v 82.925812 0.07612000000001819 -81.93895
v 83.575812 0.07612000000001819 -81.93895
v 83.575812 0.6862000000000181 -81.564052
v 83.222985 1.3138000000000183 -81.564052
v 83.222985 1.5798280000000182 -81.741806
v 82.925812 2.000000000000018 -82.321633
v 82.745812 1.2771640000000182 -82.206828
v 83.175812 0.7228360000000182 -82.206828
v 83.575812 0.42017200000001814 -81.741806
v 83.222985 1.0000000000000182 -81.501633
v 83.575812 1.7575810000000183 -82.007833
v 83.175812 1.3000000000000183 -82.321633
v 82.745812 1.3000000000000183 -82.321633
v 83.575812 2.000000000000018 -82.321633
v 82.745812 0.7228360000000182 -82.206828
v 82.925812 1.827907447626842e-14 -82.321633
v 83.575812 1.827907447626842e-14 -82.321633
v 83.575812 0.2424190000000182 -82.007833
v 83.222985 0.6862000000000181 -81.564052
v 83.397812 1.0000000000000182 -82.321633
v 83.222985 1.7575810000000183 -82.007833
v 82.925812 1.9238800000000185 -82.704317
v 83.175812 0.7000000000000183 -82.321633
v 83.222985 0.2424190000000182 -82.007833
v 83.222985 0.42017200000001814 -81.741806
v 83.575812 1.8200000000000183 -82.321633
v 83.175812 1.2771640000000182 -82.436438
v 82.745812 1.2771640000000182 -82.436438
v 83.575812 1.9238800000000185 -82.704317
v 82.745812 0.7000000000000183 -82.321633
v 83.175812 0.7228360000000184 -82.436438
v 83.575812 0.07612000000001835 -82.704317
v 83.575812 0.18000000000001828 -82.321633
v 83.222985 0.18000000000001828 -82.321633
v 83.222985 1.8200000000000183 -82.321633
v 83.575812 1.7575810000000185 -82.635434
v 83.175812 1.2121320000000184 -82.533765
v 82.925812 1.7071070000000184 -83.02874
v 82.925812 0.07612000000001835 -82.704317
v 83.222985 1.7575810000000185 -82.635434
v 82.745812 1.2121320000000184 -82.533765
v 83.575812 1.5798280000000184 -82.901461
v 83.575812 1.7071070000000184 -83.02874
v 82.745812 0.7228360000000184 -82.436438
v 83.175812 0.7878680000000183 -82.533765
v 83.575812 0.29289300000001844 -83.02874
v 83.575812 0.24241900000001834 -82.635434
v 83.222985 0.24241900000001834 -82.635434
v 83.222985 1.5798280000000184 -82.901461
v 83.175812 1.1148050000000185 -82.598797
v 82.925812 1.3826830000000185 -83.245513
v 82.925812 0.29289300000001844 -83.02874
v 83.575812 0.4201720000000184 -82.901461
v 83.222985 0.4201720000000184 -82.901461
v 83.222985 1.3138000000000185 -83.079215
v 82.745812 1.1148050000000185 -82.598797
v 83.575812 1.3138000000000185 -83.079215
v 83.575812 1.3826830000000185 -83.245513
v 82.745812 0.7878680000000183 -82.533765
v 83.175812 0.8851950000000183 -82.598797
v 82.925812 0.6173170000000184 -83.245513
v 83.575812 0.6862000000000185 -83.079215
v 83.222985 0.6862000000000185 -83.079215
v 83.222985 1.0000000000000184 -83.141633
v 83.175812 1.0000000000000184 -82.621633
v 82.925812 1.0000000000000184 -83.321633
v 82.745812 0.8851950000000183 -82.598797
v 83.575812 0.6173170000000184 -83.245513
v 83.575812 1.0000000000000184 -83.141633
v 82.745812 1.0000000000000184 -82.621633
v 83.575812 1.0000000000000184 -83.321633
vn -0.9417420577193724 -0.12871000788863654 -0.3107340190448886
vn -0.9417420473413738 7.468159799630936e-17 -0.336336016907612
vn -0.9417420577193724 0.12871000788863665 -0.3107340190448885
vn 0 0.1950900659087511 0.9807853313461206
vn -0.9417418083009403 -0.2378259515886298 -0.2378259515886299
vn 0 -0.1950900659087515 0.9807853313461203
vn 0 0.5555698928305778 0.8314698396094836
vn -0.9417418083009403 0.2378259515886299 -0.2378259515886298
vn 1 0 0
vn -0.9417420577193724 -0.3107340190448885 -0.12871000788863665
vn 0 0.8314698396094832 0.5555698928305781
vn 0 -0.5555698928305781 0.8314698396094832
vn -0.9417420577193724 0.3107340190448886 -0.12871000788863654
vn 0 -0.8314698396094836 0.5555698928305778
vn 0 -0.1950900659087511 -0.9807853313461206
vn 0 -0.5555698928305778 -0.8314698396094836
vn -0.9417420473413738 -0.336336016907612 -7.468159799630936e-17
vn 0 0.9807853313461203 0.1950900659087515
vn 0 0.1950900659087515 -0.9807853313461203
vn 0 -0.8314698396094832 -0.5555698928305781
vn -0.9417420473413738 0.336336016907612 7.468159799630936e-17
vn 0 -0.9807853313461206 0.1950900659087511
vn 0 0.5555698928305781 -0.8314698396094832
vn 0.9780188646847422 0.07979598895970698 0.19264397334645597
vn 0.9780189576434669 -4.6299850835370786e-17 0.20851599096948542
vn 0.9780189800195613 0.14744299698781327 0.14744299698781332
vn -0.9417420577193724 -0.3107340190448886 0.12871000788863654
vn 0 0.9807853313461206 -0.1950900659087511
vn 0 0.8314698396094836 -0.5555698928305778
vn 0.9780188646847422 -0.07979598895970706 0.19264397334645592
vn 0.9780188646847424 0.19264397334645594 0.07979598895970708
vn 0 -0.9807853313461203 -0.1950900659087515
vn -0.9417420577193724 0.3107340190448885 0.12871000788863665
vn 0.9780189800195613 -0.14744299698781332 0.14744299698781327
vn 0.9780189576434669 0.20851599096948542 4.6299850835370786e-17
vn -0.9417418083009403 -0.2378259515886299 0.2378259515886298
vn 0.9780188646847422 -0.19264397334645597 0.07979598895970698
vn 0.9780189576434669 -0.20851599096948542 -4.6299850835370786e-17
vn 0.9780188646847422 0.19264397334645597 -0.07979598895970698
vn -0.9417418083009403 0.2378259515886298 0.2378259515886299
vn 0.9780188646847424 -0.19264397334645594 -0.07979598895970708
vn 0.9780189800195613 0.14744299698781332 -0.14744299698781327
vn -0.9417420577193724 -0.12871000788863665 0.3107340190448885
vn 0.9780189800195613 -0.14744299698781327 -0.14744299698781332
vn 0.9780188646847422 0.07979598895970706 -0.19264397334645592
vn -0.9417420577193724 0.12871000788863654 0.3107340190448886
vn 0.9780188646847422 -0.07979598895970698 -0.19264397334645597
vn 0.9780189576434669 4.6299850835370786e-17 -0.20851599096948542
vn -0.9417420473413738 -7.468159799630936e-17 0.336336016907612
vn 0.9417420473413738 -7.468159799630936e-17 0.336336016907612
vn 0.9417420577193724 0.12871000788863654 0.3107340190448886
vn 0.9417420577193724 -0.12871000788863665 0.3107340190448885
vn 0.9417418083009403 0.2378259515886298 0.2378259515886299
vn 0.9417418083009403 -0.2378259515886299 0.2378259515886298
vn -1 0 0
vn 0.9417420577193724 0.3107340190448885 0.12871000788863665
vn 0.9417420577193724 -0.3107340190448886 0.12871000788863654
vn 0.9417420473413738 0.336336016907612 7.468159799630936e-17
vn 0.9417420473413738 -0.336336016907612 -7.468159799630936e-17
vn -0.9780189576434669 4.6299850835370786e-17 -0.20851599096948542
vn -0.9780188646847422 -0.07979598895970698 -0.19264397334645597
vn -0.9780189800195613 -0.14744299698781327 -0.14744299698781332
vn 0.9417420577193724 0.3107340190448886 -0.12871000788863654
vn -0.9780188646847422 0.07979598895970706 -0.19264397334645592
vn -0.9780188646847424 -0.19264397334645594 -0.07979598895970708
vn 0.9417420577193724 -0.3107340190448885 -0.12871000788863665
vn -0.9780189800195613 0.14744299698781332 -0.14744299698781327
vn -0.9780189576434669 -0.20851599096948542 -4.6299850835370786e-17
vn 0.9417418083009403 0.2378259515886299 -0.2378259515886298
vn -0.9780188646847422 0.19264397334645597 -0.07979598895970698
vn -0.9780189576434669 0.20851599096948542 4.6299850835370786e-17
vn -0.9780188646847422 -0.19264397334645597 0.07979598895970698
vn 0.9417418083009403 -0.2378259515886298 -0.2378259515886299
vn -0.9780188646847424 0.19264397334645594 0.07979598895970708
vn -0.9780189800195613 -0.14744299698781332 0.14744299698781327
vn 0.9417420577193724 0.12871000788863665 -0.3107340190448885
vn -0.9780189800195613 0.14744299698781327 0.14744299698781332
vn -0.9780188646847422 -0.07979598895970706 0.19264397334645592
vn 0.9417420577193724 -0.12871000788863654 -0.3107340190448886
vn -0.9780188646847422 0.07979598895970698 0.19264397334645597
vn -0.9780189576434669 -4.6299850835370786e-17 0.20851599096948542
vn 0.9417420473413738 7.468159799630936e-17 -0.336336016907612
f 1//1 2//2 3//2
f 2//2 1//1 4//1
f 2//2 5//3 3//2
f 3//4 6//4 1//4
f 7//5 4//1 1//1
f 4//4 8//4 2//4
f 5//3 2//2 9//3
f 5//6 10//6 3//6
f 6//4 3//4 10//4
f 11//7 1//7 6//7
f 4//1 7//5 12//5
f 1//7 11//7 7//7
f 8//4 4//4 13//4
f 8//6 9//6 2//6
f 9//3 14//8 5//3
f 10//6 5//6 15//6
f 16//9 6//9 10//9
f 17//9 11//9 6//9
f 18//10 12//5 7//5
f 12//7 13//7 4//7
f 11//11 18//11 7//11
f 9//6 8//6 19//6
f 14//8 9//3 20//8
f 21//12 5//12 14//12
f 5//12 21//12 15//12
f 15//9 16//9 10//9
f 6//9 16//9 17//9
f 11//9 17//9 22//9
f 12//5 18//10 23//10
f 13//7 12//7 24//7
f 18//11 11//11 25//11
f 26//12 9//12 19//12
f 9//12 26//12 20//12
f 20//8 27//13 14//8
f 14//14 28//14 21//14
f 21//9 29//9 15//9
f 16//9 15//9 29//9
f 16//15 30//15 17//15
f 17//16 31//16 22//16
f 22//9 25//9 11//9
f 32//17 23//10 18//10
f 33//11 12//11 23//11
f 12//11 33//11 24//11
f 25//18 32//18 18//18
f 26//14 34//14 20//14
f 27//13 20//8 34//13
f 28//14 14//14 27//14
f 28//9 35//9 21//9
f 29//9 21//9 35//9
f 29//19 36//19 16//19
f 30//15 16//15 36//15
f 31//16 17//16 30//16
f 31//20 37//20 22//20
f 25//9 22//9 37//9
f 23//10 32//17 38//17
f 23//18 39//18 33//18
f 32//18 25//18 40//18
f 34//14 26//14 41//14
f 34//13 42//21 27//13
f 27//22 43//22 28//22
f 35//9 28//9 44//9
f 35//23 45//23 29//23
f 36//19 29//19 45//19
f 46//9 30//24 36//25
f 46//9 31//26 30//24
f 37//20 31//20 47//20
f 37//9 40//9 25//9
f 48//27 38//17 32//17
f 39//18 23//18 38//18
f 40//28 48//28 32//28
f 41//22 49//22 34//22
f 42//21 34//13 49//21
f 43//22 27//22 42//22
f 43//9 44//9 28//9
f 50//29 35//29 44//29
f 45//23 35//23 51//23
f 46//9 36//25 45//30
f 46//9 47//31 31//26
f 47//32 52//32 37//32
f 40//9 37//9 52//9
f 38//17 48//27 53//27
f 38//28 54//28 39//28
f 48//28 40//28 55//28
f 49//22 41//22 56//22
f 57//33 42//21 49//21
f 42//32 58//32 43//32
f 44//9 43//9 59//9
f 35//29 50//29 51//29
f 44//28 60//28 50//28
f 46//9 45//30 51//34
f 61//35 47//31 46//9
f 52//32 47//32 61//32
f 62//9 40//9 52//9
f 48//27 63//36 53//27
f 54//28 38//28 53//28
f 40//9 62//9 55//9
f 55//29 64//29 48//29
f 56//32 57//32 49//32
f 42//21 57//33 65//33
f 58//32 42//32 65//32
f 58//9 59//9 43//9
f 60//28 44//28 59//28
f 46//9 51//34 50//37
f 46//9 50//37 60//38
f 66//39 61//35 46//9
f 61//22 62//22 52//22
f 63//36 48//27 64//36
f 67//29 53//29 63//29
f 53//29 67//29 54//29
f 68//9 55//9 62//9
f 64//29 55//29 69//29
f 57//32 56//32 70//32
f 71//40 65//33 57//33
f 65//20 72//20 58//20
f 59//9 58//9 73//9
f 59//18 74//18 60//18
f 74//41 46//9 60//38
f 62//22 61//22 66//22
f 75//42 66//39 46//9
f 64//36 76//43 63//36
f 76//23 67//23 63//23
f 55//9 68//9 69//9
f 66//14 68//14 62//14
f 69//23 77//23 64//23
f 70//20 71//20 57//20
f 65//33 71//40 78//40
f 72//20 65//20 78//20
f 79//9 58//9 72//9
f 58//9 79//9 73//9
f 74//18 59//18 73//18
f 80//44 46//9 74//41
f 68//14 66//14 75//14
f 81//45 75//42 46//9
f 76//43 64//36 77//43
f 67//23 76//23 82//23
f 83//9 69//9 68//9
f 77//23 69//23 84//23
f 71//20 70//20 85//20
f 86//46 78//40 71//40
f 87//16 72//16 78//16
f 72//9 88//9 79//9
f 80//11 73//11 79//11
f 73//11 80//11 74//11
f 89//47 46//9 80//44
f 75//12 83//12 68//12
f 83//12 75//12 81//12
f 90//48 81//45 46//9
f 77//43 91//49 76//43
f 91//19 82//19 76//19
f 69//9 83//9 84//9
f 84//19 92//19 77//19
f 93//16 71//16 85//16
f 78//40 86//46 87//46
f 71//16 93//16 86//16
f 72//16 87//16 94//16
f 88//9 72//9 94//9
f 89//7 79//7 88//7
f 79//7 89//7 80//7
f 90//48 46//9 89//47
f 81//6 95//6 83//6
f 95//6 81//6 90//6
f 91//49 77//43 92//49
f 82//19 91//19 96//19
f 95//9 84//9 83//9
f 92//19 84//19 97//19
f 91//49 87//46 86//46
f 96//15 86//15 93//15
f 92//15 94//15 87//15
f 94//9 95//9 88//9
f 88//4 90//4 89//4
f 90//4 88//4 95//4
f 87//46 91//49 92//49
f 86//15 96//15 91//15
f 84//9 95//9 97//9
f 94//15 92//15 97//15
f 95//9 94//9 97//9
f 3//50 2//50 1//51
f 4//51 1//51 2//50
f 3//50 5//52 2//50
f 1//15 6//15 3//15
f 1//51 4//51 7//53
f 2//15 8//15 4//15
f 9//52 2//50 5//52
f 3//19 10//19 5//19
f 10//15 3//15 6//15
f 6//16 1//16 11//16
f 12//53 7//53 4//51
f 7//16 11//16 1//16
f 13//15 4//15 8//15
f 2//19 9//19 8//19
f 5//52 14//54 9//52
f 15//19 5//19 10//19
f 10//55 6//55 16//55
f 6//55 11//55 17//55
f 7//53 12//53 18//56
f 4//16 13//16 12//16
f 7//20 18//20 11//20
f 19//19 8//19 9//19
f 20//54 9//52 14//54
f 14//23 5//23 21//23
f 15//23 21//23 5//23
f 10//55 16//55 15//55
f 17//55 16//55 6//55
f 22//55 17//55 11//55
f 23//56 18//56 12//53
f 24//16 12//16 13//16
f 25//20 11//20 18//20
f 19//23 9//23 26//23
f 20//23 26//23 9//23
f 14//54 27//57 20//54
f 21//29 28//29 14//29
f 15//55 29//55 21//55
f 29//55 15//55 16//55
f 17//4 30//4 16//4
f 22//7 31//7 17//7
f 11//55 25//55 22//55
f 18//56 23//56 32//58
f 23//20 12//20 33//20
f 24//20 33//20 12//20
f 18//32 32//32 25//32
f 20//29 34//29 26//29
f 34//57 20//54 27//57
f 27//29 14//29 28//29
f 21//55 35//55 28//55
f 35//55 21//55 29//55
f 16//6 36//6 29//6
f 36//4 16//4 30//4
f 30//7 17//7 31//7
f 22//11 37//11 31//11
f 37//55 22//55 25//55
f 38//58 32//58 23//56
f 33//32 39//32 23//32
f 40//32 25//32 32//32
f 41//29 26//29 34//29
f 27//57 42//59 34//57
f 28//28 43//28 27//28
f 44//55 28//55 35//55
f 29//12 45//12 35//12
f 45//6 29//6 36//6
f 36//60 30//61 46//55
f 30//61 31//62 46//55
f 47//11 31//11 37//11
f 25//55 40//55 37//55
f 32//58 38//58 48//63
f 38//32 23//32 39//32
f 32//22 48//22 40//22
f 34//28 49//28 41//28
f 49//59 34//57 42//59
f 42//28 27//28 43//28
f 28//55 44//55 43//55
f 44//14 35//14 50//14
f 51//12 35//12 45//12
f 45//64 36//60 46//55
f 31//62 47//65 46//55
f 37//18 52//18 47//18
f 52//55 37//55 40//55
f 53//63 48//63 38//58
f 39//22 54//22 38//22
f 55//22 40//22 48//22
f 56//28 41//28 49//28
f 49//59 42//59 57//66
f 43//18 58//18 42//18
f 59//55 43//55 44//55
f 51//14 50//14 35//14
f 50//22 60//22 44//22
f 51//67 45//64 46//55
f 46//55 47//65 61//68
f 61//18 47//18 52//18
f 52//55 40//55 62//55
f 53//63 63//69 48//63
f 53//22 38//22 54//22
f 55//55 62//55 40//55
f 48//14 64//14 55//14
f 49//18 57//18 56//18
f 65//66 57//66 42//59
f 65//18 42//18 58//18
f 43//55 59//55 58//55
f 59//22 44//22 60//22
f 50//70 51//67 46//55
f 60//71 50//70 46//55
f 46//55 61//68 66//72
f 52//28 62//28 61//28
f 64//69 48//63 63//69
f 63//14 53//14 67//14
f 54//14 67//14 53//14
f 62//55 55//55 68//55
f 69//14 55//14 64//14
f 70//18 56//18 57//18
f 57//66 65//66 71//73
f 58//11 72//11 65//11
f 73//55 58//55 59//55
f 60//32 74//32 59//32
f 60//71 46//55 74//74
f 66//28 61//28 62//28
f 46//55 66//72 75//75
f 63//69 76//76 64//69
f 63//12 67//12 76//12
f 69//55 68//55 55//55
f 62//29 68//29 66//29
f 64//12 77//12 69//12
f 57//11 71//11 70//11
f 78//73 71//73 65//66
f 78//11 65//11 72//11
f 72//55 58//55 79//55
f 73//55 79//55 58//55
f 73//32 59//32 74//32
f 74//74 46//55 80//77
f 75//29 66//29 68//29
f 46//55 75//75 81//78
f 77//76 64//69 76//76
f 82//12 76//12 67//12
f 68//55 69//55 83//55
f 84//12 69//12 77//12
f 85//11 70//11 71//11
f 71//73 78//73 86//79
f 78//7 72//7 87//7
f 79//55 88//55 72//55
f 79//20 73//20 80//20
f 74//20 80//20 73//20
f 80//77 46//55 89//80
f 68//23 83//23 75//23
f 81//23 75//23 83//23
f 46//55 81//78 90//81
f 76//76 91//82 77//76
f 76//6 82//6 91//6
f 84//55 83//55 69//55
f 77//6 92//6 84//6
f 85//7 71//7 93//7
f 87//79 86//79 78//73
f 86//7 93//7 71//7
f 94//7 87//7 72//7
f 94//55 72//55 88//55
f 88//16 79//16 89//16
f 80//16 89//16 79//16
f 89//80 46//55 90//81
f 83//19 95//19 81//19
f 90//19 81//19 95//19
f 92//82 77//76 91//82
f 96//6 91//6 82//6
f 83//55 84//55 95//55
f 97//6 84//6 92//6
f 86//79 87//79 91//82
f 93//4 86//4 96//4
f 87//4 94//4 92//4
f 88//55 95//55 94//55
f 89//15 90//15 88//15
f 95//15 88//15 90//15
f 92//82 91//82 87//79
f 91//4 96//4 86//4
f 97//55 95//55 84//55
f 97//4 92//4 94//4
f 97//55 94//55 95//55
