o mesh23/mesh23-geometry#mesh23-geometry
v 81.93929 11.188060000000016 -68.132685
v 81.830306 10.913071000000016 -68.881152
v 81.527334 10.983140000000017 -69.049
v 82.030254 10.856162000000015 -69.017525
v 81.647209 10.894575000000016 -69.154169
v 81.95917 10.856162000000015 -69.766462
v 81.781061 10.856162000000015 -69.199514
v 82.186626 11.042458000000016 -68.335815
v 81.455365 10.910013000000015 -69.553159
v 82.468635 10.856162000000015 -69.669183
v 82.468635 10.856162000000015 -68.914838
v 82.177194 11.235300000000015 -67.954703
v 81.602498 10.856162000000015 -69.451057
v 81.520368 10.856162000000015 -69.74819
v 81.530605 10.856162000000015 -70.05696
v 82.468635 11.254329000000014 -67.884509
v 82.907016 10.856162000000015 -69.017525
v 82.760076 11.235300000000015 -67.954703
v 82.782917 10.856162000000015 -69.20285
v 82.997979 11.188060000000016 -68.132685
v 82.978099 10.856162000000015 -69.766462
v 83.156209 10.856162000000015 -69.199514
v 83.171967 10.973879000000016 -68.746922
v 83.409935 10.983140000000017 -69.049
v 83.334772 10.856163000000016 -69.451057
v 83.481904 10.910014000000016 -69.55316
v 83.416901 10.856162000000015 -69.74819
v 83.346671 10.934140000000015 -69.091503
v 83.406665 10.856162000000015 -70.05696
vn 0.39774426930756523 0.8409495693962139 -0.36688324841196196
vn 0.23306894859828053 0.9286147952005299 -0.28870993632705133
vn 0.4149029259192967 0.8621968460551981 -0.2906409481062085
vn -0.4149029259192967 -0.8621968460551981 0.2906409481062085
vn -0.23306894859828053 -0.9286147952005299 0.28870993632705133
vn -0.39774426930756523 -0.8409495693962139 0.36688324841196196
vn 0.08719905152135683 0.9775525775846674 -0.19180011332465075
vn 0.15556307067994168 0.9157584160740152 -0.37038716828507756
vn -0.15556307067994168 -0.9157584160740152 0.37038716828507756
vn -0.08719905152135683 -0.9775525775846674 0.19180011332465075
vn 0.32815104050253696 0.9229251139134237 -0.20131102484711658
vn -0.32815104050253696 -0.9229251139134237 0.20131102484711658
vn -0.02558999801655772 -0.9865909235308203 0.1611939875060961
vn 0.011403999122964078 -0.9784299247528713 0.20626398413706246
vn 0.000534999886102549 -0.98464179037717 0.17458596283196165
vn -0.000534999886102549 0.98464179037717 -0.17458596283196165
vn -0.011403999122964078 0.9784299247528713 -0.20626398413706246
vn 0.02558999801655772 0.9865909235308203 -0.1611939875060961
vn 0.1153199897839179 0.9869569125664781 -0.11232699004906452
vn -0.1153199897839179 -0.9869569125664781 0.11232699004906452
vn 0.08628803638038128 0.9241323896286218 -0.3722011569258098
vn -0.08628803638038128 -0.9241323896286218 0.3722011569258098
vn 0.41397597695209515 0.8953179501536223 -0.16440699084672306
vn -0.41397597695209515 -0.8953179501536223 0.16440699084672306
vn 0 -0.9771980194931463 0.21233000423555873
vn 0 0.9771980194931463 -0.21233000423555873
vn -0.053878983487872095 -0.9909526963057464 0.12292196232848052
vn 0.053878983487872095 0.9909526963057464 -0.12292196232848052
vn 0 1 2.220446049250313e-16
vn 0 -1 -2.220446049250313e-16
vn -0.03335899666054777 0.9619459037029674 -0.27119597285152147
vn 0.03335899666054777 -0.9619459037029674 0.27119597285152147
vn 0.10323102975521309 0.8885352561105508 -0.4470441288555711
vn -0.10323102975521309 -0.8885352561105508 0.4470441288555711
vn 0.1123530455260812 0.9904624013408938 -0.07975603231758928
vn -0.1123530455260812 -0.9904624013408938 0.07975603231758928
vn 0.35730703157254395 0.9240250816491699 -0.13604901202163117
vn -0.35730703157254395 -0.9240250816491699 0.13604901202163117
vn 0.019967998392126915 -0.9754949214507134 0.21911398235639484
vn -0.019967998392126915 0.9754949214507134 -0.21911398235639484
vn -0.06534600175944112 -0.9931950267417765 0.09640300259565067
vn 0.06534600175944112 0.9931950267417765 -0.09640300259565067
vn -0.03303199387968409 0.9199078295553536 -0.3907409276017691
vn 0.03303199387968409 -0.9199078295553536 0.3907409276017691
vn 0.7032818278615961 0.6838178326256906 -0.19439095242000143
vn -0.7032818278615961 -0.6838178326256906 0.19439095242000143
vn 0.6768639882049682 0.735765987178542 0.02243999960896073
vn -0.6768639882049682 -0.735765987178542 -0.02243999960896073
vn 0 -0.9760045986059912 0.21774991044764563
vn 0 0.9760045986059912 -0.21774991044764563
vn -0.05935397951560974 0.9349516773271956 -0.34977487928483986
vn 0.05935397951560974 -0.9349516773271956 0.34977487928483986
vn -0.019967998392126915 -0.9754949214507134 0.21911398235639484
vn 0.019967998392126915 0.9754949214507134 -0.21911398235639484
vn -0.0794389605784653 0.9629065221582384 -0.25787687202876275
vn 0.0794389605784653 -0.9629065221582384 0.25787687202876275
vn -0.011403999122964078 -0.9784299247528713 0.20626398413706246
vn 0.011403999122964078 0.9784299247528713 -0.20626398413706246
vn -0.06768901257895499 0.9364211740193771 -0.3442870639804202
vn 0.06768901257895499 -0.9364211740193771 0.3442870639804202
vn 0.025590997361593898 -0.9865908982834702 0.16119398338106214
vn -0.025590997361593898 0.9865908982834702 -0.16119398338106214
vn -0.14244298185639756 0.9803618751269043 -0.1363839826281593
vn 0.14244298185639756 -0.9803618751269043 0.1363839826281593
vn -0.301886923233335 0.8991487713559376 -0.31685291942763955
vn 0.301886923233335 -0.8991487713559376 0.31685291942763955
vn -0.0005339999798294861 -0.9846419628076122 0.17458499340548822
vn 0.0005339999798294861 0.9846419628076122 -0.17458499340548822
vn -0.2904400830740079 0.949162271487025 -0.12139003472095361
vn -0.000003999999999965999 0.9999999999914999 0.0000010000000002135444
vn 0.000003999999999965999 -0.9999999999914999 -0.0000010000000002135444
vn 0.2904400830740079 -0.949162271487025 0.12139003472095361
vn -0.5035298545884037 0.8066127670627691 -0.3095699106010209
vn -0.5482652961209077 0.7291573938216607 -0.40955422120234214
vn 0.5482652961209077 -0.7291573938216607 0.40955422120234214
vn 0.5035298545884037 -0.8066127670627691 0.3095699106010209
vn 0.05388097768104888 -0.9909525895207667 0.12292194908242013
vn -0.05388097768104888 0.9909525895207667 -0.12292194908242013
vn 0 0.9999999999955 -0.0000029999999997644555
vn 0 -0.9999999999955 0.0000029999999997644555
vn -0.400511984082052 0.8919119645518516 -0.20995999165535006
vn 0.400511984082052 -0.8919119645518516 0.20995999165535006
vn -0.42668696908973036 0.8880099356703426 -0.1713959875836464
vn 0.42668696908973036 -0.8880099356703426 0.1713959875836464
vn 0.0653469848898511 -0.9931947703440964 0.09640497770832757
vn -0.0653469848898511 0.9931947703440964 -0.09640497770832757
vn -0.45385818005192974 0.8778783482667002 -0.15278206061079422
vn 0.45385818005192974 -0.8778783482667002 0.15278206061079422
vn -0.6768723071146341 0.7357583338327615 0.022440010181618533
vn 0.6768723071146341 -0.7357583338327615 -0.022440010181618533
f 1//1 2//2 3//3
f 3//4 2//5 1//6
f 4//7 2//2 1//8
f 1//9 2//5 4//10
f 2//2 5//11 3//3
f 3//4 5//12 2//5
f 6//13 1//14 3//15
f 3//16 1//17 6//18
f 4//7 7//19 2//2
f 2//5 7//20 4//10
f 8//21 4//7 1//8
f 1//9 4//10 8//22
f 2//2 7//19 5//11
f 5//12 7//20 2//5
f 5//11 9//23 3//3
f 3//4 9//24 5//12
f 10//25 1//14 6//13
f 6//18 1//17 10//26
f 6//13 3//15 9//27
f 9//28 3//16 6//18
f 4//7 6//29 7//19
f 7//20 6//30 4//10
f 11//31 4//7 8//21
f 8//22 4//10 11//32
f 8//21 1//8 12//33
f 12//34 1//9 8//22
f 7//19 13//35 5//11
f 5//12 13//36 7//20
f 5//11 14//37 9//23
f 9//24 14//38 5//12
f 10//25 12//39 1//14
f 1//17 12//40 10//26
f 10//29 6//29 4//29
f 4//30 6//30 10//30
f 6//13 9//27 15//41
f 15//42 9//28 6//18
f 6//29 13//35 7//19
f 7//20 13//36 6//30
f 10//29 4//7 11//31
f 11//32 4//10 10//30
f 11//31 8//21 16//43
f 16//44 8//22 11//32
f 16//43 8//21 12//33
f 12//34 8//22 16//44
f 14//45 5//45 13//45
f 13//46 5//46 14//46
f 15//47 9//47 14//47
f 14//48 9//48 15//48
f 16//49 12//39 10//25
f 10//26 12//40 16//50
f 6//29 15//29 14//29
f 14//30 15//30 6//30
f 6//29 14//29 13//29
f 13//30 14//30 6//30
f 17//29 10//29 11//29
f 11//30 10//30 17//30
f 18//51 11//31 16//43
f 16//44 11//32 18//52
f 18//53 16//49 10//25
f 10//26 16//50 18//54
f 10//29 17//29 19//29
f 19//30 17//30 10//30
f 17//55 11//31 18//51
f 18//52 11//32 17//56
f 20//57 18//53 10//25
f 10//26 18//54 20//58
f 21//29 19//29 17//29
f 17//30 19//30 21//30
f 19//29 21//29 10//29
f 10//30 21//30 19//30
f 20//59 17//55 18//51
f 18//52 17//56 20//60
f 20//57 10//25 21//61
f 21//62 10//26 20//58
f 22//63 21//29 17//55
f 17//56 21//30 22//64
f 23//65 17//55 20//59
f 20//60 17//56 23//66
f 24//67 20//57 21//61
f 21//62 20//58 24//68
f 25//69 21//70 22//63
f 22//64 21//71 25//72
f 23//65 22//63 17//55
f 17//56 22//64 23//66
f 24//73 23//65 20//74
f 20//75 23//66 24//76
f 26//77 24//67 21//61
f 21//62 24//68 26//78
f 27//79 21//79 25//79
f 25//80 21//80 27//80
f 28//81 25//69 22//63
f 22//64 25//72 28//82
f 28//81 22//63 23//65
f 23//66 22//64 28//82
f 24//73 28//81 23//65
f 23//66 28//82 24//76
f 26//83 28//81 24//73
f 24//76 28//82 26//84
f 26//77 21//61 29//85
f 29//86 21//62 26//78
f 27//29 29//29 21//29
f 21//30 29//30 27//30
f 27//87 25//69 28//81
f 28//82 25//72 27//88
f 26//83 27//87 28//81
f 28//82 27//88 26//84
f 26//89 29//89 27//89
f 27//90 29//90 26//90
