o mesh26/mesh26-geometry#mesh26-geometry
v 84.242709 12.964103000000014 -63.507407
v 84.199348 12.987638000000015 -63.481977
v 84.211132 12.954583000000014 -63.463213
v 84.212207 13.012033000000015 -63.510987
vn 0.6234869539084169 0.4935389635148866 0.6063689551738736
vn 0.6241810921896817 0.5419670800469176 0.5627340831141422
vn -0.6241810921896817 -0.5419670800469176 -0.5627340831141422
vn -0.6234869539084169 -0.4935389635148866 -0.6063689551738736
vn 0.6201428558248646 0.44301389700503996 0.6474268494816916
vn -0.6201428558248646 -0.44301389700503996 -0.6474268494816916
f 1//1 2//1 3//2
f 3//3 2//4 1//4
f 4//5 2//1 1//1
f 1//4 2//4 4//6
