o mesh28/mesh28-geometry#mesh28-geometry
v 80.69456 12.964103000000014 -63.507407
v 80.726137 12.954584000000015 -63.463212
v 80.737922 12.987638000000015 -63.481977
v 80.725063 13.012033000000015 -63.510987
vn -0.623487323209989 0.49355525585442206 0.6063553143289161
vn -0.6241807909650091 0.5419978184876709 0.5627048115530039
vn 0.623487323209989 -0.49355525585442206 -0.6063553143289161
vn 0.6241807909650091 -0.5419978184876709 -0.5627048115530039
vn -0.6201428558248646 0.44301389700503996 0.6474268494816916
vn 0.6201428558248646 -0.44301389700503996 -0.6474268494816916
f 1//1 2//2 3//1
f 3//3 2//4 1//3
f 4//5 1//1 3//1
f 3//3 1//3 4//6
