o mesh5/mesh5-geometry#mesh5-geometry
v 74.769629 2.750000000000013 -58.691559
v 74.660879 1.750000000000013 -58.662419
v 74.769629 1.750000000000013 -58.691559
v 74.660879 2.750000000000013 -58.662419
v 74.835879 1.750000000000013 -58.575847
v 74.849239 1.750000000000013 -58.771169
v 74.552129 1.750000000000013 -58.691559
v 74.660879 1.750000000000013 -58.528956
v 74.849239 2.750000000000013 -58.771169
v 74.552129 2.750000000000013 -58.691559
v 74.660879 0.550000000000013 -58.528956
v 74.963988 1.750000000000013 -58.703956
v 74.878379 1.750000000000013 -58.879919
v 74.472518 1.750000000000013 -58.771169
v 74.485879 1.750000000000013 -58.575847
v 74.835879 0.550000000000013 -58.575847
v 74.485879 0.550000000000013 -58.575847
v 74.878379 2.750000000000013 -58.879919
v 74.472518 2.750000000000013 -58.771169
v 74.963988 0.550000000000013 -58.703956
v 75.010879 1.750000000000013 -58.878956
v 74.849239 1.750000000000013 -58.988669
v 74.443379 2.750000000000013 -58.879919
v 74.35777 1.750000000000013 -58.703956
v 75.010879 0.5500000000000131 -58.878956
v 74.963988 1.750000000000013 -59.053956
v 74.849239 2.750000000000013 -58.988669
v 74.443379 1.750000000000013 -58.879919
v 74.35777 0.550000000000013 -58.703956
v 75.010879 1.0419510000000132 -58.878956
v 74.963988 0.5500000000000131 -59.053956
v 74.769629 1.750000000000013 -59.06828
v 74.835879 1.750000000000013 -59.182065
v 74.472518 2.750000000000013 -58.988669
v 74.310879 1.750000000000013 -58.878956
v 75.010879 0.5500000000000128 -57.296104
v 75.010879 0.5500000000000131 -59.091183
v 75.010879 1.5216380000000131 -58.878956
v 75.010879 1.6787270000000132 -58.878956
v 74.769629 2.7500000000000133 -59.06828
v 74.472518 1.750000000000013 -58.988669
v 74.35777 1.750000000000013 -59.053956
v 74.310879 0.5500000000000131 -58.878956
v 75.010879 1.0419510000000127 -57.193794
v 75.010879 1.0419510000000132 -59.193493
v 75.010879 1.5216380000000127 -57.343408
v 74.835879 0.5500000000000131 -59.182065
v 74.660879 2.7500000000000133 -59.097419
v 74.660879 1.750000000000013 -59.228956
v 74.552129 1.750000000000013 -59.06828
v 74.310879 1.6787270000000132 -58.878956
v 74.310879 0.5500000000000128 -57.296104
v 74.926761 0.5500000000000131 -59.091183
v 75.010879 1.8681960000000128 -57.707249
v 75.010879 1.5216380000000131 -59.043879
v 75.010879 1.868196000000013 -58.680038
v 74.660879 1.750000000000013 -59.097419
v 74.552129 2.7500000000000133 -59.06828
v 74.485879 1.750000000000013 -59.182065
v 74.310879 1.5216380000000131 -58.878956
v 74.310879 1.0419510000000127 -57.193794
v 74.310879 1.0419510000000132 -59.193493
v 74.310879 1.8681960000000128 -57.707249
v 74.310879 1.5216380000000131 -59.043879
v 74.660879 0.5500000000000131 -59.228956
v 74.485879 0.5500000000000131 -59.182065
v 74.310879 1.0419510000000132 -58.878956
v 74.310879 1.868196000000013 -58.680038
v 74.310879 1.5216380000000127 -57.343408
v 74.394997 0.5500000000000131 -59.091183
v 75.010879 1.9943080000000128 -58.193643
v 74.310879 1.9943080000000128 -58.193643
v 74.35777 0.5500000000000131 -59.053956
v 74.310879 0.5500000000000131 -59.091183
vn 0.2588189595935754 -2.144786235727374e-16 0.965925849201117
vn 0 1 2.220446049250313e-16
vn 0.7071067811865476 -1.5700924586837752e-16 0.7071067811865476
vn -0.2588189595935754 -2.144786235727374e-16 0.965925849201117
vn 0.965925849201117 -5.74693536300631e-17 0.2588189595935754
vn -0.7071067811865476 -1.5700924586837752e-16 0.7071067811865476
vn 0.965925849201117 5.74693536300631e-17 -0.2588189595935754
vn -0.965925849201117 -5.74693536300631e-17 0.2588189595935754
vn 0.7071067811865476 1.5700924586837752e-16 -0.7071067811865476
vn -0.965925849201117 5.74693536300631e-17 -0.2588189595935754
vn 1 0 0
vn 0.2588189595935754 2.144786235727374e-16 -0.965925849201117
vn -0.7071067811865476 1.5700924586837752e-16 -0.7071067811865476
vn 0 -0.2036119322737961 0.97905167434397
vn 0 -0.2036119322737957 -0.9790516743439702
vn 0 0.29775298415090656 0.9546429491853118
vn 0 0.7240951234491778 0.689700117585259
vn 0 0.29775298415090706 -0.9546429491853118
vn 0 0.7240951234491779 -0.6897001175852585
vn -0.2588189595935754 2.144786235727374e-16 -0.965925849201117
vn -1 0 0
vn 0 0.9679924982718465 0.25097912919091275
vn 0 0.9679924982718467 -0.2509791291909123
vn 0 -1 -2.220446049250313e-16
vn 0 0.2036119322737961 -0.97905167434397
vn 0 0.2036119322737957 0.9790516743439702
vn 0 -0.29775298415090656 -0.9546429491853118
vn 0 -0.7240951234491778 -0.689700117585259
vn 0 -0.29775298415090706 0.9546429491853118
vn 0 -0.7240951234491779 0.6897001175852585
vn 0 -0.9679924982718465 -0.25097912919091275
vn 0 -0.9679924982718467 0.2509791291909123
f 1//1 2//1 3//1
f 2//1 1//1 4//1
f 2//2 5//2 3//2
f 6//3 1//3 3//3
f 4//4 7//4 2//4
f 5//2 2//2 8//2
f 5//2 6//2 3//2
f 1//3 6//3 9//3
f 7//4 4//4 10//4
f 7//2 8//2 2//2
f 11//1 5//1 8//1
f 6//2 5//2 12//2
f 13//5 9//5 6//5
f 10//6 14//6 7//6
f 8//2 7//2 15//2
f 5//1 11//1 16//1
f 8//4 17//4 11//4
f 16//3 12//3 5//3
f 12//2 13//2 6//2
f 9//5 13//5 18//5
f 14//6 10//6 19//6
f 14//2 15//2 7//2
f 17//4 8//4 15//4
f 12//3 16//3 20//3
f 13//2 12//2 21//2
f 22//7 18//7 13//7
f 23//8 14//8 19//8
f 15//2 14//2 24//2
f 24//6 17//6 15//6
f 25//5 12//5 20//5
f 12//5 25//5 21//5
f 26//2 13//2 21//2
f 18//7 22//7 27//7
f 13//2 26//2 22//2
f 14//8 23//8 28//8
f 28//2 24//2 14//2
f 17//6 24//6 29//6
f 21//5 25//5 30//5
f 21//7 31//7 26//7
f 32//9 27//9 22//9
f 33//2 22//2 26//2
f 34//10 28//10 23//10
f 24//2 28//2 35//2
f 35//8 29//8 24//8
f 31//7 30//7 25//7
f 30//11 36//11 25//11
f 37//11 30//11 25//11
f 21//5 30//5 38//5
f 39//7 31//7 21//7
f 31//9 33//9 26//9
f 27//9 32//9 40//9
f 22//2 33//2 32//2
f 28//10 34//10 41//10
f 28//2 42//2 35//2
f 29//8 35//8 43//8
f 30//7 31//7 38//7
f 36//11 30//11 44//11
f 30//11 37//11 45//11
f 46//11 30//11 38//11
f 45//11 38//11 30//11
f 21//5 38//5 39//5
f 38//7 31//7 39//7
f 31//9 47//9 33//9
f 32//12 48//12 40//12
f 49//2 32//2 33//2
f 34//13 50//13 41//13
f 42//2 28//2 41//2
f 42//10 51//10 35//10
f 43//8 35//8 51//8
f 30//11 46//11 44//11
f 44//14 52//14 36//14
f 53//15 45//15 37//15
f 38//11 54//11 46//11
f 38//11 45//11 55//11
f 56//11 38//11 39//11
f 55//11 39//11 38//11
f 47//9 31//9 53//9
f 47//12 49//12 33//12
f 48//12 32//12 57//12
f 32//2 49//2 57//2
f 50//13 34//13 58//13
f 59//2 41//2 50//2
f 41//2 59//2 42//2
f 51//10 42//10 60//10
f 43//8 51//8 60//8
f 46//16 61//16 44//16
f 52//14 44//14 61//14
f 45//15 53//15 62//15
f 54//11 38//11 56//11
f 63//17 46//17 54//17
f 45//18 64//18 55//18
f 55//19 56//19 39//19
f 49//12 47//12 65//12
f 57//20 58//20 48//20
f 49//2 50//2 57//2
f 58//20 57//20 50//20
f 50//2 49//2 59//2
f 66//13 42//13 59//13
f 60//10 42//10 67//10
f 64//21 60//21 51//21
f 60//21 68//21 51//21
f 43//8 60//8 67//8
f 61//16 46//16 69//16
f 67//21 52//21 61//21
f 70//15 62//15 53//15
f 64//18 45//18 62//18
f 56//11 71//11 54//11
f 46//17 63//17 69//17
f 54//22 72//22 63//22
f 64//19 56//19 55//19
f 65//20 59//20 49//20
f 66//13 73//13 42//13
f 59//20 65//20 66//20
f 67//10 42//10 43//10
f 64//21 67//21 60//21
f 67//21 69//21 60//21
f 51//19 56//19 64//19
f 60//21 63//21 68//21
f 56//19 51//19 68//19
f 62//21 43//21 67//21
f 52//21 67//21 43//21
f 69//21 67//21 61//21
f 62//15 70//15 74//15
f 67//21 64//21 62//21
f 68//23 71//23 56//23
f 72//22 54//22 71//22
f 63//21 60//21 69//21
f 68//21 63//21 72//21
f 73//13 66//13 70//13
f 43//10 42//10 73//10
f 43//21 62//21 74//21
f 71//23 68//23 72//23
f 3//20 2//20 1//20
f 4//20 1//20 2//20
f 3//24 5//24 2//24
f 3//13 1//13 6//13
f 2//12 7//12 4//12
f 8//24 2//24 5//24
f 3//24 6//24 5//24
f 9//13 6//13 1//13
f 10//12 4//12 7//12
f 2//24 8//24 7//24
f 8//20 5//20 11//20
f 12//24 5//24 6//24
f 6//10 9//10 13//10
f 7//9 14//9 10//9
f 15//24 7//24 8//24
f 16//20 11//20 5//20
f 11//12 17//12 8//12
f 5//13 12//13 16//13
f 6//24 13//24 12//24
f 18//10 13//10 9//10
f 19//9 10//9 14//9
f 7//24 15//24 14//24
f 15//12 8//12 17//12
f 20//13 16//13 12//13
f 21//24 12//24 13//24
f 13//8 18//8 22//8
f 19//7 14//7 23//7
f 24//24 14//24 15//24
f 15//9 17//9 24//9
f 20//10 12//10 25//10
f 21//10 25//10 12//10
f 21//24 13//24 26//24
f 27//8 22//8 18//8
f 22//24 26//24 13//24
f 28//7 23//7 14//7
f 14//24 24//24 28//24
f 29//9 24//9 17//9
f 30//10 25//10 21//10
f 26//8 31//8 21//8
f 22//6 27//6 32//6
f 26//24 22//24 33//24
f 23//5 28//5 34//5
f 35//24 28//24 24//24
f 24//7 29//7 35//7
f 25//8 30//8 31//8
f 25//21 36//21 30//21
f 25//21 30//21 37//21
f 38//10 30//10 21//10
f 21//8 31//8 39//8
f 26//6 33//6 31//6
f 40//6 32//6 27//6
f 32//24 33//24 22//24
f 41//5 34//5 28//5
f 35//24 42//24 28//24
f 43//7 35//7 29//7
f 38//8 31//8 30//8
f 44//21 30//21 36//21
f 45//21 37//21 30//21
f 38//21 30//21 46//21
f 30//21 38//21 45//21
f 39//10 38//10 21//10
f 39//8 31//8 38//8
f 33//6 47//6 31//6
f 40//4 48//4 32//4
f 33//24 32//24 49//24
f 41//3 50//3 34//3
f 41//24 28//24 42//24
f 35//5 51//5 42//5
f 51//7 35//7 43//7
f 44//21 46//21 30//21
f 36//25 52//25 44//25
f 37//26 45//26 53//26
f 46//21 54//21 38//21
f 55//21 45//21 38//21
f 39//21 38//21 56//21
f 38//21 39//21 55//21
f 53//6 31//6 47//6
f 33//4 49//4 47//4
f 57//4 32//4 48//4
f 57//24 49//24 32//24
f 58//3 34//3 50//3
f 50//24 41//24 59//24
f 42//24 59//24 41//24
f 60//5 42//5 51//5
f 60//7 51//7 43//7
f 44//27 61//27 46//27
f 61//25 44//25 52//25
f 62//26 53//26 45//26
f 56//21 38//21 54//21
f 54//28 46//28 63//28
f 55//29 64//29 45//29
f 39//30 56//30 55//30
f 65//4 47//4 49//4
f 48//1 58//1 57//1
f 57//24 50//24 49//24
f 50//1 57//1 58//1
f 59//24 49//24 50//24
f 59//3 42//3 66//3
f 67//5 42//5 60//5
f 51//11 60//11 64//11
f 51//11 68//11 60//11
f 67//7 60//7 43//7
f 69//27 46//27 61//27
f 61//11 52//11 67//11
f 53//26 62//26 70//26
f 62//29 45//29 64//29
f 54//21 71//21 56//21
f 69//28 63//28 46//28
f 63//31 72//31 54//31
f 55//30 56//30 64//30
f 49//1 59//1 65//1
f 42//3 73//3 66//3
f 66//1 65//1 59//1
f 43//5 42//5 67//5
f 60//11 67//11 64//11
f 60//11 69//11 67//11
f 64//30 56//30 51//30
f 68//11 63//11 60//11
f 68//30 51//30 56//30
f 67//11 43//11 62//11
f 43//11 67//11 52//11
f 61//11 67//11 69//11
f 74//26 70//26 62//26
f 62//11 64//11 67//11
f 56//32 71//32 68//32
f 71//31 54//31 72//31
f 69//11 60//11 63//11
f 72//11 63//11 68//11
f 70//3 66//3 73//3
f 73//5 42//5 43//5
f 74//11 62//11 43//11
f 72//32 68//32 71//32
