o mesh2/mesh2-geometry#mesh2-geometry
v 133.128602 56.223567 34.492583
v 133.072356 56.170266 34.530547
v 133.046378 53.064009 34.519152
v 132.222943 55.351161 34.82371
v 132.203865 53.069969 34.815341
v 131.325083 54.472956 34.888496
v 131.313409 53.077166 34.883376
v 130.439962 53.595498 34.720492
v 130.435694 53.085111 34.718619
v 129.937619 53.090153 34.479641
vn 0.564476050197164 -0.007749000689095416 0.8254130734015117
vn 0.4519098635006463 -0.007051997869944366 0.8920357305606483
vn 0.20563794405209215 -0.005309998555308889 0.9786137337485977
vn -0.054646977593486905 -0.003205998685467071 0.9985005905918763
vn -0.31120812183784796 -0.0008840003460857613 0.9503413720582449
vn -0.43258503980344915 0.00031000002852403394 0.9015930829582882
vn -0.4519098635006463 0.007051997869944366 -0.8920357305606483
vn -0.564476050197164 0.007749000689095416 -0.8254130734015117
vn -0.20563794405209215 0.005309998555308889 -0.9786137337485977
vn 0.054646977593486905 0.003205998685467071 -0.9985005905918763
vn 0.31120812183784796 0.0008840003460857613 -0.9503413720582449
vn 0.43258503980344915 -0.00031000002852403394 -0.9015930829582882
f 1//1 2//2 3//2
f 4//3 3//2 2//2
f 3//2 4//3 5//3
f 6//4 5//3 4//3
f 5//3 6//4 7//4
f 8//5 7//4 6//4
f 7//4 8//5 9//5
f 8//5 10//6 9//5
f 3//7 2//7 1//8
f 2//7 3//7 4//9
f 5//9 4//9 3//7
f 4//9 5//9 6//10
f 7//10 6//10 5//9
f 6//10 7//10 8//11
f 9//11 8//11 7//10
f 9//11 10//12 8//11
