o _2x4_Frame_Length_2_3/_2x4_Frame_Length_2/mesh7/mesh7-geometry#mesh7-geometry
v 48 14.25 14.500000000000016
v 39.125 14.25 11.000000000000014
v 39.125 14.25 14.500000000000014
v 48 14.25 11.000000000000016
v 39.125 12.75 14.500000000000014
v 48 12.75 11.000000000000016
v 39.125 12.75 11.000000000000014
v 48 12.75 14.500000000000016
vt 7.3375 0
vt 6.45 0.35
vt 6.45 0
vt 7.3375 0.35
vt -0.35 0.15
vt 0 0
vt 0 0.15
vt 7.3375 0.15
vt 6.45 0.15
vt 0.35 0
vt 0.35 0.15
vt -7.3375 0
vt -6.45 0.15
vt -7.3375 0.15
vt -0.35 0
vt -6.45 0
vt -7.3375 0.35
vt -6.45 0.35
vn 0 1 0
vn 0 -1 0
vn -1 0 -2.220446049250313e-16
vn 1 0 2.220446049250313e-16
vn -2.220446049250313e-16 0 1
vn 2.220446049250313e-16 0 -1
f 1/1/1 2/2/1 3/3/1
f 2/2/1 1/1/1 4/4/1
f 3/3/2 2/2/2 1/1/2
f 4/4/2 1/1/2 2/2/2
f 2/5/3 5/6/3 3/7/3
f 3/7/4 5/6/4 2/5/4
f 5/3/5 1/8/5 3/9/5
f 3/9/6 1/8/6 5/3/6
f 1/7/4 6/10/4 4/11/4
f 4/11/3 6/10/3 1/7/3
f 6/12/6 2/13/6 4/14/6
f 4/14/5 2/13/5 6/12/5
f 5/6/3 2/5/3 7/15/3
f 7/15/4 2/5/4 5/6/4
f 1/8/5 5/3/5 8/1/5
f 8/1/6 5/3/6 1/8/6
f 6/10/4 1/7/4 8/6/4
f 8/6/3 1/7/3 6/10/3
f 2/13/6 6/12/6 7/16/6
f 7/16/5 6/12/5 2/13/5
f 6/17/2 5/16/2 7/18/2
f 7/18/1 5/16/1 6/17/1
f 5/16/2 6/17/2 8/12/2
f 8/12/1 6/17/1 5/16/1
