o _2x4_1_1/_2x4_1/mesh9/mesh9-geometry#mesh9-geometry
v 38 12.75 -59.5
v 38 1.5 -63
v 38 12.75 -63
v 38 1.5 -59.5
v 36.5 12.75 -63
v 36.5 1.5000000000000004 -59.5
v 36.5 1.5000000000000004 -63
v 36.5 12.75 -59.5
vt -0.35 1.125
vt 0 0
vt 0 1.125
vt -0.35 0
vt -1.125 0.15
vt -1.125 0
vt 0 0.15
vt 1.125 0
vt 0.35 0.15
vt 0.35 0
vt -0.35 0.15
vt 1.125 0.15
vt 0.35 1.125
vn 1 -2.220446049250313e-16 0
vn -1 2.220446049250313e-16 0
vn 0 0 -1
vn 0 0 1
vn 2.220446049250313e-16 1 0
vn -2.220446049250313e-16 -1 0
f 1/1/1 2/2/1 3/3/1
f 2/2/1 1/1/1 4/4/1
f 3/3/2 2/2/2 1/1/2
f 4/4/2 1/1/2 2/2/2
f 2/2/3 5/5/3 3/6/3
f 3/6/4 5/5/4 2/2/4
f 5/7/5 1/4/5 3/2/5
f 3/2/6 1/4/6 5/7/6
f 1/8/4 6/7/4 4/2/4
f 4/2/3 6/7/3 1/8/3
f 6/9/6 2/2/6 4/10/6
f 4/10/5 2/2/5 6/9/5
f 5/5/3 2/2/3 7/7/3
f 7/7/4 2/2/4 5/5/4
f 1/4/5 5/7/5 8/11/5
f 8/11/6 5/7/6 1/4/6
f 6/7/4 1/8/4 8/12/4
f 8/12/3 1/8/3 6/7/3
f 2/2/6 6/9/6 7/7/6
f 7/7/5 6/9/5 2/2/5
f 6/10/2 5/3/2 7/2/2
f 7/2/1 5/3/1 6/10/1
f 5/3/2 6/10/2 8/13/2
f 8/13/1 6/10/1 5/3/1
