o Mattress1/Mattress/mesh17/mesh17-geometry#mesh17-geometry
v 0 24.753124684095383 -57.479310512542725
v 51.5 23.77812471985817 -59
v -1.5 23.77812471985817 -59
v 50 24.753124684095383 -57.479310512542725
v 51.5 14.750000101007819 -59
v 0 24.753124684095383 12.979302406311035
v 50 24.753124684095383 12.979302406311035
v -1.5 14.750000101007819 -59
v 51.5 23.77812471985817 14.49999189376831
v -1.5 23.77812471985817 14.49999189376831
v 51.5 14.750000101007819 14.49999189376831
v 50 23.77812471985817 14.49999189376831
v -1.5 14.750000101007819 14.49999189376831
vt -0.15 1.303728
vt -5.3 1.038563
vt 0 1.038563
vt -5.15 1.303728
vt -5.3 -0.267428
vt 0 1.46875
vt -5.3 1.46875
vt 7.1 1.303728
vt 0.15 1.303728
vt 7.1 0.1875
vt 0.15 6.4375
vt 0.15 0.1875
vt -7.1 -3.380854
vt 0 -3.646019
vt -0.15 -3.380854
vt 0 -0.267428
vt -7.25 1.46875
vt 7.25 1.038563
vt 7.1 6.4375
vt -7.25 -3.646019
vt -7.25 6.625
vt 0 0
vt 0 6.625
vt 7.25 1.46875
vt -7.25 -0.267428
vt 5.15 -5.369592
vt 0.15 -5.104427
vt 0 -5.369592
vt 5.15 -5.104427
vt 5.3 -5.369592
vt -7.25 0
vt 7.25 -0.267428
vt 5.15 1.46875
vt 5.3 -0.267428
vt 5.3 1.46875
vn 0 0.8418290828689798 -0.5397441942586992
vn 0 -0.8418290828689798 0.5397441942586992
vn 0 0 -1
vn 0 0 1
vn -0.544988343744693 0.838443620753606 0
vn 0.544988343744693 -0.838443620753606 0
vn 0 1 0
vn 0 -1 0
vn 0.544988343744693 0.838443620753606 0
vn -0.544988343744693 -0.838443620753606 0
vn 1 0 0
vn -1 0 0
vn 0 0.8418290828689798 0.5397441942586992
vn 0 -0.8418290828689798 -0.5397441942586992
f 1/1/1 2/2/1 3/3/1
f 2/2/1 1/1/1 4/4/1
f 3/3/2 2/2/2 1/1/2
f 4/4/2 1/1/2 2/2/2
f 5/5/3 3/6/3 2/7/3
f 2/7/4 3/6/4 5/5/4
f 3/3/5 6/8/5 1/9/5
f 1/9/6 6/8/6 3/3/6
f 6/10/7 4/11/7 1/12/7
f 1/12/8 4/11/8 6/10/8
f 7/13/9 2/14/9 4/15/9
f 4/15/10 2/14/10 7/13/10
f 3/6/3 5/5/3 8/16/3
f 8/16/4 5/5/4 3/6/4
f 9/17/11 5/16/11 2/6/11
f 2/6/12 5/16/12 9/17/12
f 6/8/5 3/3/5 10/18/5
f 10/18/6 3/3/6 6/8/6
f 4/11/7 6/10/7 7/19/7
f 7/19/8 6/10/8 4/11/8
f 2/14/9 7/13/9 9/20/9
f 9/20/10 7/13/10 2/14/10
f 11/21/8 8/22/8 5/23/8
f 5/23/7 8/22/7 11/21/7
f 8/16/12 10/24/12 3/6/12
f 3/6/11 10/24/11 8/16/11
f 5/16/11 9/17/11 11/25/11
f 11/25/12 9/17/12 5/16/12
f 12/26/13 6/27/13 10/28/13
f 10/28/14 6/27/14 12/26/14
f 6/27/13 12/26/13 7/29/13
f 7/29/14 12/26/14 6/27/14
f 7/29/13 12/26/13 9/30/13
f 9/30/14 12/26/14 7/29/14
f 8/22/8 11/21/8 13/31/8
f 13/31/7 11/21/7 8/22/7
f 10/24/12 8/16/12 13/32/12
f 13/32/11 8/16/11 10/24/11
f 12/33/4 11/34/4 9/35/4
f 9/35/3 11/34/3 12/33/3
f 10/6/4 11/34/4 12/33/4
f 12/33/3 11/34/3 10/6/3
f 11/34/4 10/6/4 13/16/4
f 13/16/3 10/6/3 11/34/3
