o Trim_1_1/Trim_1/mesh35/mesh35-geometry#mesh35-geometry
v 51.875 24.50000000000001 -63
v -1.875 24.875 -63
v 51.875 24.87500000000001 -63
v -1.875 24.5 -63
v 51.875 24.87500000000001 -59
v -1.875 24.5 -59
v -1.875 24.875 -59
v 51.875 24.50000000000001 -59
vn 0 0 -1
vn 0 0 1
vn -2.220446049250313e-16 1 0
vn 2.220446049250313e-16 -1 0
vn 1 2.220446049250313e-16 0
vn -1 -2.220446049250313e-16 0
f 1//1 2//1 3//1
f 2//1 1//1 4//1
f 3//2 2//2 1//2
f 4//2 1//2 2//2
f 2//3 5//3 3//3
f 3//4 5//4 2//4
f 5//5 1//5 3//5
f 3//6 1//6 5//6
f 1//4 6//4 4//4
f 4//3 6//3 1//3
f 6//6 2//6 4//6
f 4//5 2//5 6//5
f 5//3 2//3 7//3
f 7//4 2//4 5//4
f 1//5 5//5 8//5
f 8//6 5//6 1//6
f 6//4 1//4 8//4
f 8//3 1//3 6//3
f 2//6 6//6 7//6
f 7//5 6//5 2//5
f 7//2 8//2 5//2
f 5//1 8//1 7//1
f 8//2 7//2 6//2
f 6//1 7//1 8//1
