o Plywood_Base1/Plywood_Base/mesh37/mesh37-geometry#mesh37-geometry
v 51.5 14.25 -26.75
v -1.5 14.25 -59.5
v 51.5 14.25 -59.5
v -1.5 14.25 -26.75
v -1.5 14.75 -59.5
v 51.5 14.75 -59.5
v -1.5 14.75 -26.75
v 51.5 14.75 -26.75
vt -2.729167 5.35861
vt 0 0
vt 0 5.35861
vt -2.729167 0
vt 0 0.050553
vt -4.416667 0
vt 4.416667 0
vt 2.729167 0.050553
vt 2.729167 0
vt -4.416667 0.050553
vt -2.729167 0.050553
vt 4.416667 0.050553
vt 2.729167 5.35861
vn 0 -1 0
vn 0 1 0
vn 0 0 -1
vn 0 0 1
vn 1 0 0
vn -1 0 0
f 1/1/1 2/2/1 3/3/1
f 2/2/1 1/1/1 4/4/1
f 3/3/2 2/2/2 1/1/2
f 4/4/2 1/1/2 2/2/2
f 5/5/3 3/6/3 2/2/3
f 2/2/4 3/6/4 5/5/4
f 6/5/5 1/4/5 3/2/5
f 3/2/6 1/4/6 6/5/6
f 1/7/4 7/5/4 4/2/4
f 4/2/3 7/5/3 1/7/3
f 7/8/6 2/2/6 4/9/6
f 4/9/5 2/2/5 7/8/5
f 3/6/3 5/5/3 6/10/3
f 6/10/4 5/5/4 3/6/4
f 2/2/6 7/8/6 5/5/6
f 5/5/5 7/8/5 2/2/5
f 1/4/5 6/5/5 8/11/5
f 8/11/6 6/5/6 1/4/6
f 7/5/4 1/7/4 8/12/4
f 8/12/3 1/7/3 7/5/3
f 7/9/2 6/3/2 5/2/2
f 5/2/1 6/3/1 7/9/1
f 6/3/2 7/9/2 8/13/2
f 8/13/1 7/9/1 6/3/1
