o Trim1/Trim/mesh39/mesh39-geometry#mesh39-geometry
v -1.5 24.5 -63
v -1.875 12.75 -63
v -1.875 24.5 -63
v -1.5 12.75 -63
v -1.875 24.5 -59
v -1.5 12.75 -59
v -1.875 12.75 -59
v -1.5 24.5 -59
vn 0 0 -1
vn 0 0 1
vn -1 0 0
vn 1 0 0
vn 0 1 0
vn 0 -1 0
f 1//1 2//1 3//1
f 2//1 1//1 4//1
f 3//2 2//2 1//2
f 4//2 1//2 2//2
f 2//3 5//3 3//3
f 3//4 5//4 2//4
f 5//5 1//5 3//5
f 3//6 1//6 5//6
f 1//4 6//4 4//4
f 4//3 6//3 1//3
f 6//6 2//6 4//6
f 4//5 2//5 6//5
f 5//3 2//3 7//3
f 7//4 2//4 5//4
f 1//5 5//5 8//5
f 8//6 5//6 1//6
f 6//4 1//4 8//4
f 8//3 1//3 6//3
f 2//6 6//6 7//6
f 7//5 6//5 2//5
f 6//2 5//2 7//2
f 7//1 5//1 6//1
f 5//2 6//2 8//2
f 8//1 6//1 5//1
