o Trim_5_1/Trim_5/mesh43/mesh43-geometry#mesh43-geometry
v 51.875 36.625 -63
v 51.5 24.875 -63
v 51.5 36.625 -63
v 51.875 24.875 -63
v 51.5 26.452497 -61.376863
v 51.5 36.625 -59
v 51.875 26.452497 -61.376863
v 51.875 24.875 -59
v 51.5 26.320632 -61.322243
v 51.5 26.594006 -61.395493
v 51.875 36.625 -59
v 51.5 27.140754 -60.848745
v 51.875 26.320632 -61.322243
v 51.875 26.594006 -61.395493
v 51.5 24.875 -59
v 51.875 26.120509 -61.122119
v 51.5 26.207397 -61.235354
v 51.5 26.735515 -61.376863
v 51.875 27.140754 -60.848745
v 51.5 27.122124 -60.990254
v 51.5 27.122124 -60.707236
v 51.875 26.207397 -61.235354
v 51.875 26.735515 -61.376863
v 51.5 26.120509 -60.575371
v 51.875 26.065888 -60.990254
v 51.5 26.120509 -61.122119
v 51.5 26.86738 -61.322243
v 51.875 26.594006 -60.301997
v 51.875 27.122124 -60.707236
v 51.875 27.122124 -60.990254
v 51.5 27.067504 -61.122119
v 51.5 27.067504 -60.575371
v 51.875 26.86738 -61.322243
v 51.5 26.594006 -60.301997
v 51.5 26.207397 -60.462136
v 51.5 26.065888 -60.707236
v 51.5 26.065888 -60.990254
v 51.875 26.047258 -60.848745
v 51.5 26.980615 -61.235354
v 51.875 26.452497 -60.320627
v 51.875 26.735515 -60.320627
v 51.875 27.067504 -60.575371
v 51.875 27.067504 -61.122119
v 51.5 26.980615 -60.462136
v 51.875 26.980615 -61.235354
v 51.5 26.452497 -60.320627
v 51.5 26.735515 -60.320627
v 51.5 26.320632 -60.375247
v 51.875 26.120509 -60.575371
v 51.875 26.065888 -60.707236
v 51.5 26.047258 -60.848745
v 51.875 26.320632 -60.375247
v 51.875 26.86738 -60.375247
v 51.875 26.980615 -60.462136
v 51.5 26.86738 -60.375247
v 51.875 26.207397 -60.462136
vn 0 0 -1
vn 0 0 1
vn -1 0 0
vn 1 0 0
vn 0 1 0
vn 0 -1 0
vn 0 0.5000001748438417 0.8660253028382762
vn 0 0.2588189595935754 0.965925849201117
vn 0 -0.5000001748438417 -0.8660253028382762
vn 0 -0.2588189595935754 -0.965925849201117
vn 0 0.7071067811865476 0.7071067811865476
vn 0 -0.7071067811865476 -0.7071067811865476
vn 0 -0.2588189595935754 0.965925849201117
vn 0 0.2588189595935754 -0.965925849201117
vn 0 -0.965925849201117 0.2588189595935754
vn 0 0.965925849201117 -0.2588189595935754
vn 0 -0.965925849201117 -0.2588189595935754
vn 0 0.965925849201117 0.2588189595935754
vn 0 0.8660253028382762 0.5000001748438417
vn 0 -0.8660253028382762 -0.5000001748438417
vn 0 -0.5000001748438417 0.8660253028382762
vn 0 0.5000001748438417 -0.8660253028382762
vn 0 -0.8660253028382762 0.5000001748438417
vn 0 0.8660253028382762 -0.5000001748438417
vn 0 0.7071067811865476 -0.7071067811865476
vn 0 -0.7071067811865476 0.7071067811865476
f 1//1 2//1 3//1
f 2//1 1//1 4//1
f 3//2 2//2 1//2
f 4//2 1//2 2//2
f 2//3 5//3 3//3
f 3//4 5//4 2//4
f 6//5 1//5 3//5
f 3//6 1//6 6//6
f 7//4 4//4 1//4
f 1//3 4//3 7//3
f 8//6 2//6 4//6
f 4//5 2//5 8//5
f 5//3 2//3 9//3
f 9//4 2//4 5//4
f 3//3 5//3 10//3
f 10//4 5//4 3//4
f 1//5 6//5 11//5
f 11//6 6//6 1//6
f 3//3 12//3 6//3
f 6//4 12//4 3//4
f 13//4 4//4 7//4
f 7//3 4//3 13//3
f 7//4 1//4 14//4
f 14//3 1//3 7//3
f 2//6 8//6 15//6
f 15//5 8//5 2//5
f 4//4 16//4 8//4
f 8//3 16//3 4//3
f 9//3 2//3 17//3
f 17//4 2//4 9//4
f 13//7 5//8 9//7
f 9//9 5//10 13//9
f 7//8 10//2 5//8
f 5//10 10//1 7//10
f 3//3 10//3 18//3
f 18//4 10//4 3//4
f 6//2 8//2 11//2
f 11//1 8//1 6//1
f 11//4 19//4 1//4
f 1//3 19//3 11//3
f 3//3 20//3 12//3
f 12//4 20//4 3//4
f 21//3 6//3 12//3
f 12//4 6//4 21//4
f 22//4 4//4 13//4
f 13//3 4//3 22//3
f 5//8 13//7 7//8
f 7//10 13//9 5//10
f 14//4 1//4 23//4
f 23//3 1//3 14//3
f 10//2 7//8 14//2
f 14//1 7//10 10//1
f 8//2 6//2 15//2
f 15//1 6//1 8//1
f 15//3 24//3 2//3
f 2//4 24//4 15//4
f 16//4 4//4 22//4
f 22//3 4//3 16//3
f 8//4 16//4 25//4
f 25//3 16//3 8//3
f 17//3 2//3 26//3
f 26//4 2//4 17//4
f 22//11 9//7 17//11
f 17//12 9//9 22//12
f 9//7 22//11 13//7
f 13//9 22//12 9//9
f 14//2 18//13 10//2
f 10//1 18//14 14//1
f 3//3 18//3 27//3
f 27//4 18//4 3//4
f 8//4 28//4 11//4
f 11//3 28//3 8//3
f 11//4 29//4 19//4
f 19//3 29//3 11//3
f 30//4 1//4 19//4
f 19//3 1//3 30//3
f 3//3 31//3 20//3
f 20//4 31//4 3//4
f 20//15 19//6 12//6
f 12//5 19//5 20//16
f 32//3 6//3 21//3
f 21//4 6//4 32//4
f 12//6 29//17 21//17
f 21//18 29//18 12//5
f 23//4 1//4 33//4
f 33//3 1//3 23//3
f 18//13 14//2 23//13
f 23//14 14//1 18//14
f 34//3 15//3 6//3
f 6//4 15//4 34//4
f 24//3 15//3 35//3
f 35//4 15//4 24//4
f 2//3 24//3 36//3
f 36//4 24//4 2//4
f 22//11 26//19 16//19
f 16//20 26//20 22//12
f 16//19 37//18 25//18
f 25//17 37//17 16//20
f 8//4 25//4 38//4
f 38//3 25//3 8//3
f 26//3 2//3 37//3
f 37//4 2//4 26//4
f 26//19 22//11 17//11
f 17//12 22//12 26//20
f 23//13 27//21 18//13
f 18//14 27//22 23//14
f 3//3 27//3 39//3
f 39//4 27//4 3//4
f 28//4 8//4 40//4
f 40//3 8//3 28//3
f 11//4 28//4 41//4
f 41//3 28//3 11//3
f 11//4 42//4 29//4
f 29//3 42//3 11//3
f 29//17 12//6 19//6
f 19//5 12//5 29//18
f 43//4 1//4 30//4
f 30//3 1//3 43//3
f 19//6 20//15 30//15
f 30//16 20//16 19//5
f 3//3 39//3 31//3
f 31//4 39//4 3//4
f 31//23 30//15 20//15
f 20//16 30//16 31//24
f 44//3 6//3 32//3
f 32//4 6//4 44//4
f 21//17 42//20 32//20
f 32//19 42//19 21//18
f 42//20 21//17 29//17
f 29//18 21//18 42//19
f 33//4 1//4 45//4
f 45//3 1//3 33//3
f 27//21 23//13 33//21
f 33//22 23//14 27//22
f 46//3 15//3 34//3
f 34//4 15//4 46//4
f 34//3 6//3 47//3
f 47//4 6//4 34//4
f 35//3 15//3 48//3
f 48//4 15//4 35//4
f 35//25 49//24 24//24
f 24//23 49//23 35//26
f 24//24 50//16 36//16
f 36//15 50//15 24//23
f 2//3 36//3 51//3
f 51//4 36//4 2//4
f 37//18 16//19 26//19
f 26//20 16//20 37//17
f 51//5 25//18 37//18
f 37//17 25//17 51//6
f 25//18 51//5 38//5
f 38//6 51//6 25//17
f 50//4 8//4 38//4
f 38//3 8//3 50//3
f 37//3 2//3 51//3
f 51//4 2//4 37//4
f 33//21 39//26 27//21
f 27//22 39//25 33//22
f 40//4 8//4 52//4
f 52//3 8//3 40//3
f 46//14 28//1 40//14
f 40//13 28//2 46//13
f 34//1 41//10 28//1
f 28//2 41//8 34//2
f 11//4 41//4 53//4
f 53//3 41//3 11//3
f 11//4 54//4 42//4
f 42//3 54//3 11//3
f 45//4 1//4 43//4
f 43//3 1//3 45//3
f 30//15 31//23 43//23
f 43//24 31//24 30//16
f 39//26 43//23 31//23
f 31//24 43//24 39//25
f 55//3 6//3 44//3
f 44//4 6//4 55//4
f 32//20 54//12 44//12
f 44//11 54//11 32//19
f 54//12 32//20 42//20
f 42//19 32//19 54//11
f 39//26 33//21 45//26
f 45//25 33//22 39//25
f 48//3 15//3 46//3
f 46//4 15//4 48//4
f 28//1 46//14 34//1
f 34//2 46//13 28//2
f 47//3 6//3 55//3
f 55//4 6//4 47//4
f 41//10 34//1 47//10
f 47//8 34//2 41//8
f 52//22 35//25 48//22
f 48//21 35//26 52//21
f 49//24 35//25 56//25
f 56//26 35//26 49//23
f 50//16 24//24 49//24
f 49//23 24//23 50//15
f 38//5 36//16 50//16
f 50//15 36//15 38//6
f 36//16 38//5 51//5
f 51//6 38//6 36//15
f 49//4 8//4 50//4
f 50//3 8//3 49//3
f 52//4 8//4 56//4
f 56//3 8//3 52//3
f 48//22 40//14 52//22
f 52//21 40//13 48//21
f 40//14 48//22 46//14
f 46//13 48//21 40//13
f 47//10 53//9 41//10
f 41//8 53//7 47//8
f 11//4 53//4 54//4
f 54//3 53//3 11//3
f 43//23 39//26 45//26
f 45//25 39//25 43//24
f 54//12 55//9 44//12
f 44//11 55//7 54//11
f 53//9 47//10 55//9
f 55//7 47//8 53//7
f 35//25 52//22 56//25
f 56//26 52//21 35//26
f 56//4 8//4 49//4
f 49//3 8//3 56//3
f 55//9 54//12 53//9
f 53//7 54//11 55//7
